<svg width="28" height="29" viewBox="0 0 28 29" fill="none" xmlns="http://www.w3.org/2000/svg">
<rect y="0.5" width="28" height="28" rx="4" fill="#F0F0F0"/>
<path d="M14.0348 17.5629C14.4216 17.5585 14.7943 17.7156 15.0711 17.9996C15.3478 18.2836 15.5059 18.6713 15.5105 19.0774C15.5151 19.4835 15.3659 19.8747 15.0957 20.165C14.8255 20.4552 14.4564 20.6208 14.0696 20.6252C13.6829 20.6296 13.3101 20.4724 13.0334 20.1884C12.7567 19.9044 12.5986 19.5167 12.594 19.1106C12.5894 18.7045 12.7386 18.3133 13.0088 18.023C13.279 17.7328 13.6481 17.5672 14.0348 17.5629ZM13.9826 12.9694C14.3694 12.965 14.7421 13.1221 15.0189 13.4061C15.2956 13.6902 15.4537 14.0779 15.4583 14.484C15.4629 14.8901 15.3137 15.2813 15.0435 15.5715C14.7733 15.8618 14.4042 16.0273 14.0174 16.0317C13.6307 16.0361 13.2579 15.879 12.9812 15.595C12.7045 15.3109 12.5464 14.9232 12.5418 14.5171C12.5372 14.111 12.6864 13.7198 12.9566 13.4296C13.2268 13.1393 13.5959 12.9738 13.9826 12.9694ZM13.9304 8.37595C14.3172 8.37155 14.6899 8.52865 14.9667 8.81269C15.2434 9.09673 15.4015 9.48444 15.4061 9.89053C15.4107 10.2966 15.2615 10.6878 14.9913 10.9781C14.7211 11.2683 14.352 11.4339 13.9652 11.4382C13.5785 11.4426 13.2057 11.2855 12.929 11.0015C12.6523 10.7175 12.4942 10.3298 12.4896 9.92367C12.485 9.51758 12.6342 9.12638 12.9044 8.83613C13.1746 8.54587 13.5437 8.38034 13.9304 8.37595Z" fill="black"/>
</svg>
