<svg width="25" height="25" viewBox="0 0 25 25" fill="none" xmlns="http://www.w3.org/2000/svg">
<path d="M24.4983 12.2474C24.4983 18.3098 20.0059 23.3216 14.1698 24.1349C13.6242 24.2106 13.0659 24.2501 12.4992 24.2501C11.845 24.2501 11.2026 24.198 10.5771 24.0971C4.86379 23.1769 0.5 18.2214 0.5 12.2474C0.5 5.61823 5.87276 0.243896 12.5 0.243896C19.1272 0.243896 24.5 5.61823 24.5 12.2474H24.4983Z" fill="#383D38"/>
<path d="M14.1698 9.88233V12.4972H17.4036L16.8915 16.0195H14.1698V24.1348C13.6242 24.2105 13.0659 24.2501 12.4992 24.2501C11.845 24.2501 11.2026 24.1979 10.5771 24.097V16.0195H7.59473V12.4972H10.5771V9.2978C10.5771 7.31291 12.1855 5.70312 14.1707 5.70312V5.70481C14.1766 5.70481 14.1816 5.70312 14.1875 5.70312H17.4044V8.74943H15.3024C14.6777 8.74943 14.1707 9.25659 14.1707 9.88149L14.1698 9.88233Z" fill="white"/>
</svg>
