<svg width="25" height="25" viewBox="0 0 25 25" fill="none" xmlns="http://www.w3.org/2000/svg">
<path d="M12.5273 0.243652H12.4727C5.86035 0.243652 0.5 5.60558 0.5 12.2199V12.2745C0.5 18.8888 5.86035 24.2507 12.4727 24.2507H12.5273C19.1397 24.2507 24.5 18.8888 24.5 12.2745V12.2199C24.5 5.60558 19.1397 0.243652 12.5273 0.243652Z" fill="#383D38"/>
<path d="M16.2134 5.12793H8.78711C6.73547 5.12793 5.06641 6.79748 5.06641 8.84973V15.6457C5.06641 17.6979 6.73547 19.3675 8.78711 19.3675H16.2134C18.265 19.3675 19.9341 17.6979 19.9341 15.6457V8.84973C19.9341 6.79748 18.265 5.12793 16.2134 5.12793ZM6.37895 8.84973C6.37895 7.52166 7.45943 6.44086 8.78711 6.44086H16.2134C17.5411 6.44086 18.6215 7.52166 18.6215 8.84973V15.6457C18.6215 16.9738 17.5411 18.0546 16.2134 18.0546H8.78711C7.45943 18.0546 6.37895 16.9738 6.37895 15.6457V8.84973Z" fill="white"/>
<path d="M12.4999 15.7087C14.4078 15.7087 15.9608 14.1561 15.9608 12.2468C15.9608 10.3376 14.4086 8.78491 12.4999 8.78491C10.5912 8.78491 9.03906 10.3376 9.03906 12.2468C9.03906 14.1561 10.5912 15.7087 12.4999 15.7087ZM12.4999 10.0987C13.6847 10.0987 14.6483 11.0626 14.6483 12.2477C14.6483 13.4327 13.6847 14.3966 12.4999 14.3966C11.3152 14.3966 10.3516 13.4327 10.3516 12.2477C10.3516 11.0626 11.3152 10.0987 12.4999 10.0987Z" fill="white"/>
<path d="M16.2816 9.34429C16.7954 9.34429 17.2141 8.92627 17.2141 8.41152C17.2141 7.89678 16.7962 7.47876 16.2816 7.47876C15.767 7.47876 15.3491 7.89678 15.3491 8.41152C15.3491 8.92627 15.767 9.34429 16.2816 9.34429Z" fill="white"/>
</svg>
