<svg width="25" height="25" viewBox="0 0 25 25" fill="none" xmlns="http://www.w3.org/2000/svg">
<path d="M12.5273 0.243652H12.4727C5.86036 0.243652 0.5 5.60558 0.5 12.2198V12.2745C0.5 18.8888 5.86036 24.2507 12.4727 24.2507H12.5273C19.1396 24.2507 24.5 18.8888 24.5 12.2745V12.2198C24.5 5.60558 19.1396 0.243652 12.5273 0.243652Z" fill="#383D38"/>
<path d="M6.22338 8.22311C5.90723 7.92957 5.75 7.56623 5.75 7.13391C5.75 6.7016 5.90807 6.32226 6.22338 6.02789C6.53954 5.73435 6.9465 5.58716 7.44512 5.58716C7.94373 5.58716 8.33473 5.73435 8.65004 6.02789C8.9662 6.32142 9.12342 6.69066 9.12342 7.13391C9.12342 7.57716 8.96536 7.92957 8.65004 8.22311C8.33389 8.51665 7.9328 8.66384 7.44512 8.66384C6.95743 8.66384 6.53954 8.51665 6.22338 8.22311ZM8.85773 9.90696V18.9066H6.01486V9.90696H8.85773Z" fill="#FEFFFC"/>
<path d="M18.3214 10.7957C18.9411 11.4685 19.2505 12.3921 19.2505 13.5679V18.7473H16.5506V13.9329C16.5506 13.34 16.3967 12.879 16.0898 12.551C15.7829 12.223 15.3692 12.0581 14.8513 12.0581C14.3333 12.0581 13.9196 12.2222 13.6127 12.551C13.3058 12.879 13.1519 13.34 13.1519 13.9329V18.7473H10.436V9.88142H13.1519V11.0573C13.4269 10.6653 13.7977 10.3558 14.2635 10.1279C14.7293 9.89993 15.2532 9.78638 15.8359 9.78638C16.8735 9.78638 17.7025 10.1228 18.3214 10.7948V10.7957Z" fill="#FEFFFC"/>
</svg>
