<svg width="25" height="25" viewBox="0 0 25 25" fill="none" xmlns="http://www.w3.org/2000/svg">
<path d="M12.5273 0.24353H12.4727C5.86034 0.24353 0.5 5.60546 0.5 12.2197V12.2744C0.5 18.8887 5.86034 24.2506 12.4727 24.2506H12.5273C19.1397 24.2506 24.5 18.8887 24.5 12.2744V12.2197C24.5 5.60546 19.1397 0.24353 12.5273 0.24353Z" fill="#383D38"/>
<path d="M5.04542 11.838C5.07905 11.8211 5.1127 11.8051 5.14549 11.79C5.71558 11.5259 6.29324 11.2786 6.87005 11.0314C6.90116 11.0314 6.95328 10.9952 6.98271 10.9834C7.02727 10.9641 7.07185 10.9456 7.11641 10.9262C7.20218 10.8892 7.28795 10.853 7.37287 10.816C7.5444 10.7429 7.71508 10.6697 7.88661 10.5965L8.91327 10.1566C9.59771 9.86393 10.283 9.57039 10.9674 9.27769C11.6519 8.98499 12.3372 8.69145 13.0216 8.39875C13.706 8.10606 14.3913 7.81252 15.0758 7.51983C15.7602 7.22713 16.4455 6.93359 17.1299 6.64089C17.2821 6.57529 17.4469 6.47772 17.6101 6.44912C17.7471 6.42473 17.8808 6.37763 18.0187 6.35156C18.2802 6.30193 18.5686 6.28175 18.8192 6.39025C18.9058 6.4281 18.9857 6.48109 19.0521 6.54753C19.3699 6.8621 19.3254 7.37852 19.2581 7.82093C18.7897 10.9043 18.3214 13.9886 17.8522 17.072C17.7883 17.4951 17.7009 17.9594 17.367 18.2268C17.0845 18.4531 16.6826 18.4783 16.3337 18.3824C15.9847 18.2857 15.677 18.083 15.3751 17.8837C14.1231 17.0544 12.8703 16.225 11.6183 15.3957C11.3206 15.1989 10.9893 14.9416 10.9927 14.5841C10.9944 14.3688 11.123 14.177 11.2542 14.0063C12.3422 12.5865 13.9121 11.6109 15.08 10.2567C15.2448 10.0658 15.3743 9.72094 15.1481 9.61076C15.0136 9.54516 14.8588 9.63431 14.7361 9.71926C13.1923 10.7916 11.6494 11.8649 10.1056 12.9372C9.60193 13.2871 9.07388 13.6471 8.4668 13.7329C7.92362 13.8103 7.37708 13.6589 6.85156 13.5041C6.41096 13.3746 5.97118 13.2417 5.53311 13.1046C5.3002 13.0323 5.05972 12.9541 4.87978 12.7901C4.69984 12.626 4.59643 12.3502 4.7049 12.1315C4.773 11.9944 4.90502 11.9078 5.04376 11.8371L5.04542 11.838Z" fill="#FEFFFC"/>
</svg>
