<svg width="25" height="25" viewBox="0 0 25 25" fill="none" xmlns="http://www.w3.org/2000/svg">
<path d="M12.5273 0.243652H12.4727C5.86035 0.243652 0.5 5.60558 0.5 12.2199V12.2745C0.5 18.8888 5.86035 24.2507 12.4727 24.2507H12.5273C19.1397 24.2507 24.5 18.8888 24.5 12.2745V12.2199C24.5 5.60558 19.1397 0.243652 12.5273 0.243652Z" fill="#383D38"/>
<path d="M18.3015 8.92873V11.1955C17.9054 11.1568 17.3908 11.0668 16.8216 10.8582C16.0783 10.5857 15.525 10.2131 15.1626 9.92457V14.506L15.1534 14.4917C15.1593 14.5825 15.1626 14.675 15.1626 14.7684C15.1626 17.0435 13.3119 18.8956 11.0366 18.8956C8.76133 18.8956 6.91064 17.0435 6.91064 14.7684C6.91064 12.4932 8.76133 10.6403 11.0366 10.6403C11.2595 10.6403 11.4781 10.658 11.6916 10.6925V12.9264C11.4865 12.8532 11.2662 12.8137 11.0366 12.8137C9.95952 12.8137 9.08253 13.6901 9.08253 14.7684C9.08253 15.8466 9.95952 16.7231 11.0366 16.7231C12.1137 16.7231 12.9907 15.8458 12.9907 14.7684C12.9907 14.728 12.9899 14.6876 12.9874 14.6473V5.74438H15.2517C15.2602 5.93615 15.2677 6.12961 15.2761 6.32137C15.2913 6.69902 15.4258 7.06152 15.6604 7.35843C15.9353 7.70748 16.3415 8.11288 16.9116 8.4367C17.4455 8.73865 17.9466 8.86901 18.3015 8.93041V8.92873Z" fill="white"/>
</svg>
