<svg width="25" height="25" viewBox="0 0 25 25" fill="none" xmlns="http://www.w3.org/2000/svg">
<path d="M24.4983 12.2474C24.4983 18.3098 20.0059 23.3216 14.1698 24.1349C13.6242 24.2106 13.0659 24.2501 12.4992 24.2501C11.845 24.2501 11.2026 24.198 10.5771 24.0971C4.86379 23.1769 0.5 18.2214 0.5 12.2474C0.5 5.61824 5.87276 0.243896 12.5 0.243896C19.1272 0.243896 24.5 5.61824 24.5 12.2474H24.4983Z" fill="#383D38"/>
<path d="M5.36651 5.53833L10.9007 12.9396L5.33203 18.9574H6.58568L11.4615 13.689L15.4007 18.9574H19.6661L13.8208 11.1398L19.0044 5.53833H17.7508L13.2608 10.3904L9.63276 5.53833H5.36734H5.36651ZM7.20955 6.46181H9.16864L17.8214 18.0339H15.8623L7.20955 6.46181Z" fill="white"/>
</svg>
