<svg width="25" height="25" viewBox="0 0 25 25" fill="none" xmlns="http://www.w3.org/2000/svg">
<path fill-rule="evenodd" clip-rule="evenodd" d="M17.1761 2.87512C14.0299 2.17184 10.7672 2.17184 7.62106 2.87512L7.28206 2.95012C6.39684 3.14745 5.58375 3.58659 4.93332 4.21866C4.2829 4.85072 3.82065 5.6509 3.59806 6.53012C2.80195 9.67282 2.80195 12.9644 3.59806 16.1071C3.81036 16.9456 4.24083 17.713 4.84573 18.3312C5.45063 18.9494 6.20841 19.3966 7.04206 19.6271L7.50706 22.4031C7.5219 22.4913 7.56011 22.5738 7.61769 22.6422C7.67528 22.7106 7.75014 22.7622 7.83448 22.7919C7.91883 22.8215 8.00957 22.8279 8.09725 22.8106C8.18494 22.7932 8.26637 22.7526 8.33306 22.6931L11.0641 20.2501C13.1141 20.3739 15.1714 20.2099 17.1761 19.7631L17.5161 19.6881C18.4013 19.4908 19.2144 19.0516 19.8648 18.4196C20.5152 17.7875 20.9775 16.9873 21.2001 16.1081C21.9962 12.9654 21.9962 9.67381 21.2001 6.53112C20.9774 5.65178 20.515 4.85151 19.8644 4.21943C19.2138 3.58735 18.4005 3.14828 17.5151 2.95112L17.1761 2.87512ZM8.46506 6.44912C8.2792 6.4219 8.08964 6.45932 7.92806 6.55512H7.91406C7.53906 6.77512 7.20106 7.05212 6.91306 7.37812C6.67306 7.65512 6.54306 7.93512 6.50906 8.20512C6.48906 8.36512 6.50306 8.52712 6.55006 8.68012L6.56806 8.69012C6.83806 9.48312 7.19006 10.2461 7.62006 10.9641C8.17476 11.9724 8.85704 12.9051 9.65006 13.7391L9.67406 13.7731L9.71206 13.8011L9.73506 13.8281L9.76306 13.8521C10.6 14.6474 11.5349 15.333 12.5451 15.8921C13.7001 16.5211 14.4011 16.8181 14.8221 16.9421V16.9481C14.9451 16.9861 15.0571 17.0031 15.1701 17.0031C15.5288 16.9774 15.8684 16.8315 16.1341 16.5891C16.4591 16.3011 16.7341 15.9621 16.9481 15.5851V15.5781C17.1491 15.1981 17.0811 14.8401 16.7911 14.5971C16.209 14.0875 15.5791 13.6354 14.9101 13.2471C14.4621 13.0041 14.0071 13.1511 13.8231 13.3971L13.4301 13.8931C13.2281 14.1391 12.8621 14.1051 12.8621 14.1051L12.8521 14.1111C10.1211 13.4141 9.39206 10.6491 9.39206 10.6491C9.39206 10.6491 9.35806 10.2731 9.61106 10.0811L10.1031 9.68512C10.3391 9.49312 10.5031 9.03912 10.2501 8.59112C9.86264 7.92254 9.41154 7.29295 8.90306 6.71112C8.79183 6.57449 8.63606 6.48138 8.46306 6.44812M13.0791 5.24712C12.9465 5.24712 12.8193 5.29979 12.7255 5.39356C12.6317 5.48733 12.5791 5.61451 12.5791 5.74712C12.5791 5.87972 12.6317 6.0069 12.7255 6.10067C12.8193 6.19444 12.9465 6.24712 13.0791 6.24712C14.3441 6.24712 15.3941 6.66012 16.2251 7.45212C16.6521 7.88512 16.9851 8.39812 17.2031 8.96012C17.4221 9.52312 17.5221 10.1241 17.4961 10.7261C17.4933 10.7918 17.5035 10.8573 17.5261 10.9191C17.5487 10.9808 17.5832 11.0374 17.6277 11.0858C17.7175 11.1835 17.8425 11.2415 17.9751 11.2471C18.1077 11.2527 18.2371 11.2053 18.3348 11.1155C18.4325 11.0257 18.4905 10.9007 18.4961 10.7681C18.5259 10.0277 18.403 9.28902 18.1351 8.59812C17.8659 7.9037 17.4559 7.27248 16.9311 6.74412L16.9211 6.73412C15.8901 5.74912 14.5851 5.24712 13.0791 5.24712ZM13.0451 6.89112C12.9125 6.89112 12.7853 6.94379 12.6915 7.03756C12.5977 7.13133 12.5451 7.25851 12.5451 7.39112C12.5451 7.52372 12.5977 7.6509 12.6915 7.74467C12.7853 7.83844 12.9125 7.89112 13.0451 7.89112H13.0621C13.9741 7.95612 14.6381 8.26012 15.1031 8.75912C15.5801 9.27312 15.8271 9.91212 15.8081 10.7021C15.805 10.8347 15.8548 10.9631 15.9464 11.059C16.038 11.155 16.164 11.2106 16.2966 11.2136C16.4292 11.2167 16.5576 11.1669 16.6535 11.0753C16.7494 10.9837 16.805 10.8577 16.8081 10.7251C16.8321 9.68812 16.4981 8.79312 15.8361 8.07912V8.07712C15.1591 7.35112 14.2301 6.96712 13.1121 6.89212L13.0951 6.89012L13.0451 6.89112ZM13.0261 8.56612C12.9591 8.56021 12.8917 8.56785 12.8278 8.58858C12.7639 8.6093 12.7049 8.64269 12.6542 8.68675C12.6035 8.73081 12.5622 8.78464 12.5327 8.84501C12.5033 8.90539 12.4863 8.97108 12.4828 9.03816C12.4793 9.10525 12.4894 9.17235 12.5124 9.23546C12.5354 9.29857 12.5709 9.35639 12.6167 9.40548C12.6626 9.45457 12.7178 9.49392 12.7792 9.52117C12.8406 9.54843 12.9069 9.56303 12.9741 9.56412C13.3921 9.58612 13.6591 9.71212 13.8271 9.88112C13.9961 10.0511 14.1221 10.3241 14.1451 10.7511C14.1463 10.8182 14.1611 10.8844 14.1884 10.9457C14.2158 11.0069 14.2552 11.0621 14.3043 11.1078C14.3534 11.1535 14.4113 11.1889 14.4743 11.2118C14.5374 11.2347 14.6045 11.2447 14.6715 11.2411C14.7385 11.2376 14.8041 11.2205 14.8644 11.1911C14.9247 11.1616 14.9785 11.1203 15.0225 11.0697C15.0665 11.019 15.0998 10.96 15.1206 10.8962C15.1413 10.8323 15.1489 10.765 15.1431 10.6981C15.1111 10.0981 14.9231 9.56812 14.5381 9.17812C14.1511 8.78812 13.6241 8.59812 13.0261 8.56612Z" fill="black"/>
</svg>
