<svg width="25" height="25" viewBox="0 0 25 25" fill="none" xmlns="http://www.w3.org/2000/svg">
<path d="M12.5273 0.24353H12.4727C5.86035 0.24353 0.5 5.60546 0.5 12.2197V12.2744C0.5 18.8887 5.86035 24.2506 12.4727 24.2506H12.5273C19.1397 24.2506 24.5 18.8887 24.5 12.2744V12.2197C24.5 5.60546 19.1397 0.24353 12.5273 0.24353Z" fill="#383D38"/>
<path d="M14.839 15.7584C11.7674 15.7584 9.26842 13.2579 9.26758 10.1854C9.26842 9.40653 9.90241 8.77319 10.6793 8.77319C10.7592 8.77319 10.8383 8.77992 10.9139 8.79338C11.0804 8.82113 11.2385 8.87749 11.384 8.96244C11.405 8.97505 11.4193 8.99524 11.4226 9.01879L11.7472 11.0651C11.7514 11.0887 11.7438 11.1131 11.7279 11.1308C11.5488 11.3293 11.3201 11.4722 11.0653 11.5437L10.9425 11.5782L10.9888 11.6968C11.4075 12.7633 12.2601 13.6153 13.3271 14.0359L13.4457 14.083L13.4802 13.9602C13.5516 13.7053 13.6946 13.4765 13.893 13.2974C13.9073 13.2839 13.9267 13.2772 13.946 13.2772C13.9502 13.2772 13.9544 13.2772 13.9594 13.278L16.0052 13.6027C16.0296 13.6069 16.0498 13.6204 16.0624 13.6414C16.1465 13.7869 16.2028 13.9459 16.2314 14.1124C16.2448 14.1864 16.2507 14.2646 16.2507 14.3462C16.2507 15.1242 15.6176 15.7576 14.839 15.7584Z" fill="#FDFDFD"/>
<path d="M20.2859 11.5731C20.1202 9.7008 19.2626 7.96396 17.871 6.68299C16.471 5.39445 14.6548 4.68457 12.7554 4.68457C8.58649 4.68457 5.19456 8.0775 5.19456 12.2476C5.19456 13.6472 5.5805 15.0106 6.31118 16.1982L4.68164 19.8064L9.89903 19.2505C10.8063 19.6222 11.7665 19.8106 12.7545 19.8106C13.0143 19.8106 13.2809 19.7972 13.5483 19.7694C13.7837 19.7442 14.0217 19.7072 14.2554 19.6601C17.7466 18.9544 20.2951 15.855 20.3153 12.288V12.2476C20.3153 12.0205 20.3052 11.7934 20.285 11.5739L20.2859 11.5731ZM10.1 17.6667L7.21341 17.9745L8.07527 16.0644L7.90289 15.8331C7.89028 15.8163 7.87767 15.7995 7.86337 15.7802C7.11503 14.7465 6.71983 13.5252 6.71983 12.2484C6.71983 8.91943 9.42732 6.21114 12.7554 6.21114C15.8732 6.21114 18.5159 8.6444 18.7707 11.7505C18.7842 11.9171 18.7917 12.0844 18.7917 12.2493C18.7917 12.2964 18.7909 12.3426 18.79 12.3923C18.7261 15.1771 16.7813 17.5422 14.0603 18.1444C13.8526 18.1907 13.6399 18.226 13.428 18.2487C13.2077 18.274 12.9815 18.2866 12.757 18.2866C11.9574 18.2866 11.1805 18.1318 10.4464 17.8257C10.3649 17.7929 10.285 17.7575 10.2101 17.7214L10.1008 17.6684L10.1 17.6667Z" fill="#FDFDFD"/>
</svg>
