<svg width="60" height="61" viewBox="0 0 60 61" fill="none" xmlns="http://www.w3.org/2000/svg">
<path d="M54.7896 1.77734H5.21039C4.60679 1.77734 4.11719 2.26694 4.11719 2.87054V8.70374C4.11719 9.30734 4.60679 9.79694 5.21039 9.79694H7.03319V58.2829C7.03319 58.8865 7.52279 59.3761 8.12639 59.3761H51.8736C52.4772 59.3761 52.9668 58.8865 52.9668 58.2829V9.79814H54.7896C55.3932 9.79814 55.8828 9.30854 55.8828 8.70494V2.87054C55.8828 2.26694 55.3932 1.77734 54.7896 1.77734ZM34.4484 57.1897H25.5528V52.1581C25.5528 49.7053 27.5484 47.7109 30 47.7109C32.4516 47.7109 34.4484 49.7065 34.4484 52.1581V57.1897ZM50.7792 57.1897H36.636V52.1581C36.636 48.4993 33.66 45.5233 30 45.5233C26.34 45.5233 23.3652 48.4993 23.3652 52.1581V57.1897H9.21959V9.79814H50.7792V57.1909V57.1897ZM53.6964 7.61054H6.30359V3.96494H53.6964V7.61054Z" fill="black"/>
<path d="M13.9592 24.379H25.6256C26.2292 24.379 26.7188 23.8894 26.7188 23.2858C26.7188 22.6822 26.2292 22.1926 25.6256 22.1926H25.2608V14.5366C25.2608 13.933 24.7712 13.4434 24.1676 13.4434H15.4184C14.8148 13.4434 14.3252 13.933 14.3252 14.5366V22.1926H13.9604C13.3568 22.1926 12.8672 22.6822 12.8672 23.2858C12.8672 23.8894 13.3568 24.379 13.9604 24.379H13.9592ZM16.5104 15.6298H23.072V22.1914H16.5104V15.6298Z" fill="black"/>
<path d="M34.3772 24.379H46.0436C46.6472 24.379 47.1368 23.8894 47.1368 23.2858C47.1368 22.6822 46.6472 22.1926 46.0436 22.1926H45.6788V14.5366C45.6788 13.933 45.1892 13.4434 44.5856 13.4434H35.8364C35.2328 13.4434 34.7432 13.933 34.7432 14.5366V22.1926H34.3784C33.7748 22.1926 33.2852 22.6822 33.2852 23.2858C33.2852 23.8894 33.7748 24.379 34.3784 24.379H34.3772ZM36.9284 15.6298H43.49V22.1914H36.9284V15.6298Z" fill="black"/>
<path d="M13.9592 41.879H25.6256C26.2292 41.879 26.7188 41.3894 26.7188 40.7858C26.7188 40.1822 26.2292 39.6926 25.6256 39.6926H25.2608V32.0366C25.2608 31.433 24.7712 30.9434 24.1676 30.9434H15.4184C14.8148 30.9434 14.3252 31.433 14.3252 32.0366V39.6926H13.9604C13.3568 39.6926 12.8672 40.1822 12.8672 40.7858C12.8672 41.3894 13.3568 41.879 13.9604 41.879H13.9592ZM16.5104 33.1298H23.072V39.6914H16.5104V33.1298Z" fill="black"/>
<path d="M34.3772 41.879H46.0436C46.6472 41.879 47.1368 41.3894 47.1368 40.7858C47.1368 40.1822 46.6472 39.6926 46.0436 39.6926H45.6788V32.0366C45.6788 31.433 45.1892 30.9434 44.5856 30.9434H35.8364C35.2328 30.9434 34.7432 31.433 34.7432 32.0366V39.6926H34.3784C33.7748 39.6926 33.2852 40.1822 33.2852 40.7858C33.2852 41.3894 33.7748 41.879 34.3784 41.879H34.3772ZM36.9284 33.1298H43.49V39.6914H36.9284V33.1298Z" fill="black"/>
</svg>
