<svg width="15" height="19" viewBox="0 0 15 19" fill="none" xmlns="http://www.w3.org/2000/svg">
<path fill-rule="evenodd" clip-rule="evenodd" d="M6.82349 18.6009C6.82349 18.6009 0.166656 12.9946 0.166656 7.47811C0.166656 5.53319 0.939273 3.66793 2.31454 2.29266C3.68981 0.917392 5.55507 0.144775 7.49999 0.144775C9.44491 0.144775 11.3102 0.917392 12.6854 2.29266C14.0607 3.66793 14.8333 5.53319 14.8333 7.47811C14.8333 12.9946 8.17649 18.6009 8.17649 18.6009C7.80616 18.9419 7.19657 18.9383 6.82349 18.6009ZM7.49999 10.6864C7.92131 10.6864 8.33851 10.6035 8.72777 10.4422C9.11702 10.281 9.4707 10.0447 9.76862 9.74674C10.0665 9.44882 10.3029 9.09514 10.4641 8.70588C10.6253 8.31663 10.7083 7.89943 10.7083 7.47811C10.7083 7.05678 10.6253 6.63959 10.4641 6.25033C10.3029 5.86108 10.0665 5.5074 9.76862 5.20947C9.4707 4.91155 9.11702 4.67523 8.72777 4.514C8.33851 4.35276 7.92131 4.26978 7.49999 4.26978C6.64909 4.26978 5.83303 4.6078 5.23136 5.20947C4.62968 5.81115 4.29166 6.62721 4.29166 7.47811C4.29166 8.32901 4.62968 9.14506 5.23136 9.74674C5.83303 10.3484 6.64909 10.6864 7.49999 10.6864Z" fill="#636363"/>
</svg>
