<svg width="21" height="21" viewBox="0 0 21 21" fill="none" xmlns="http://www.w3.org/2000/svg">
<path d="M3.05547 0.5C1.67787 0.5 0.545471 1.6322 0.545471 3.01C0.545471 4.2134 1.40887 5.2292 2.54547 5.4672V15.5528C1.40887 15.7908 0.545471 16.8068 0.545471 18.0102C0.545471 19.388 1.67767 20.52 3.05547 20.52C4.26487 20.52 5.27347 19.6452 5.50367 18.5H15.5947C15.8251 19.6464 16.8453 20.52 18.0557 20.52C19.3857 20.52 20.4767 19.4624 20.5513 18.1496C20.5606 18.1037 20.5653 18.057 20.5653 18.0102C20.5653 17.9634 20.5606 17.9167 20.5513 17.8708C20.4861 16.7234 19.6445 15.7712 18.5455 15.5492V5.4708C19.6445 5.2488 20.4861 4.2968 20.5515 3.1496C20.5608 3.10372 20.5655 3.05702 20.5655 3.0102C20.5655 2.96338 20.5608 2.91668 20.5515 2.8708C20.4765 1.558 19.3857 0.5 18.0555 0.5C16.8523 0.5 15.8363 1.3634 15.5983 2.5H5.49947C5.26147 1.3648 4.25747 0.5 3.05547 0.5ZM3.05547 1.9C3.67687 1.9 4.16547 2.3888 4.16547 3.01C4.16547 3.6314 3.67687 4.12 3.05547 4.12C2.43407 4.12 1.94547 3.6314 1.94547 3.01C1.94547 2.3886 2.43427 1.9 3.05547 1.9ZM18.0555 1.9C18.6769 1.9 19.1655 2.3888 19.1655 3.01C19.1655 3.6314 18.6769 4.12 18.0555 4.12C17.4341 4.12 16.9455 3.6314 16.9455 3.01C16.9455 2.3886 17.4343 1.9 18.0555 1.9ZM5.38907 3.9H15.7131C15.8391 4.2267 16.0315 4.52376 16.278 4.77245C16.5245 5.02114 16.8199 5.21609 17.1455 5.345V15.675C16.8232 15.8025 16.5304 15.9948 16.2853 16.2399C16.0403 16.485 15.848 16.7777 15.7205 17.1H5.38047C5.25309 16.7751 5.05983 16.4802 4.81287 16.2336C4.5659 15.9871 4.27057 15.7944 3.94547 15.6676V5.3524C4.27406 5.22437 4.57222 5.02902 4.82081 4.77888C5.06939 4.52875 5.26289 4.22938 5.38887 3.9M3.05547 16.9C3.67667 16.9 4.16527 17.3888 4.16527 18.01C4.16527 18.6314 3.67667 19.12 3.05527 19.12C2.43387 19.12 1.94547 18.6314 1.94547 18.01C1.94547 17.3886 2.43427 16.9 3.05547 16.9ZM18.0555 16.9C18.6767 16.9 19.1653 17.3888 19.1653 18.01C19.1653 18.6314 18.6767 19.12 18.0553 19.12C17.4339 19.12 16.9455 18.6314 16.9455 18.01C16.9455 17.3886 17.4343 16.9 18.0555 16.9Z" fill="#636363"/>
</svg>
