<svg width="24" height="25" viewBox="0 0 24 25" fill="none" xmlns="http://www.w3.org/2000/svg">
<path d="M12.5 22.2464H4.07997C2.91997 22.2464 1.96997 21.3164 1.96997 20.1764V5.33644C1.96997 2.71644 3.91997 1.52644 6.30997 2.69644L10.75 4.87644C11.71 5.34644 12.5 6.59644 12.5 7.65644V22.2464Z" stroke="#292D32" stroke-width="1.5" stroke-linecap="round" stroke-linejoin="round"/>
<path d="M21.97 15.308V19.088C21.97 21.248 20.97 22.248 18.81 22.248H12.5V10.668L12.97 10.768L17.47 11.778L19.5 12.228C20.82 12.518 21.9 13.198 21.96 15.118C21.97 15.178 21.97 15.238 21.97 15.308Z" stroke="#292D32" stroke-width="1.5" stroke-linecap="round" stroke-linejoin="round"/>
<path d="M5.5 9.24609H8.97" stroke="#292D32" stroke-width="1.5" stroke-linecap="round" stroke-linejoin="round"/>
<path d="M5.5 13.2461H8.97" stroke="#292D32" stroke-width="1.5" stroke-linecap="round" stroke-linejoin="round"/>
<path d="M17.47 11.7756V14.9956C17.47 16.2356 16.46 17.2456 15.22 17.2456C13.98 17.2456 12.97 16.2356 12.97 14.9956V10.7656L17.47 11.7756Z" stroke="#292D32" stroke-width="1.5" stroke-linecap="round" stroke-linejoin="round"/>
<path d="M21.96 15.1173C21.9 16.2973 20.92 17.2473 19.72 17.2473C18.48 17.2473 17.47 16.2373 17.47 14.9973V11.7773L19.5 12.2273C20.82 12.5173 21.9 13.1973 21.96 15.1173Z" stroke="#292D32" stroke-width="1.5" stroke-linecap="round" stroke-linejoin="round"/>
</svg>
