<svg width="25" height="25" viewBox="0 0 25 25" fill="none" xmlns="http://www.w3.org/2000/svg">
<path d="M16.5517 12.248C16.5517 14.228 14.9517 15.828 12.9717 15.828C10.9917 15.828 9.39169 14.228 9.39169 12.248C9.39169 10.268 10.9917 8.66797 12.9717 8.66797C14.9517 8.66797 16.5517 10.268 16.5517 12.248Z" stroke="#292D32" stroke-width="1.5" stroke-linecap="round" stroke-linejoin="round"/>
<path d="M12.9717 20.5148C16.5017 20.5148 19.7917 18.4348 22.0817 14.8348C22.9817 13.4248 22.9817 11.0548 22.0817 9.64484C19.7917 6.04484 16.5017 3.96484 12.9717 3.96484C9.44168 3.96484 6.15168 6.04484 3.86168 9.64484C2.96168 11.0548 2.96168 13.4248 3.86168 14.8348C6.15168 18.4348 9.44168 20.5148 12.9717 20.5148Z" stroke="#292D32" stroke-width="1.5" stroke-linecap="round" stroke-linejoin="round"/>
</svg>
