<svg width="22" height="25" viewBox="0 0 22 25" fill="none" xmlns="http://www.w3.org/2000/svg">
<path d="M14.4176 20.0205C14.4168 19.4281 14.5755 18.8464 14.8766 18.3362L7.30594 13.9269C7.01308 14.4299 6.59364 14.8471 6.08903 15.1371C5.58442 15.4271 5.01256 15.5798 4.43055 15.5796C3.54737 15.5792 2.70001 15.2283 2.0755 14.6038C1.45099 13.9793 1.10039 13.1323 1.10004 12.2491C1.10039 11.366 1.4516 10.5193 2.07614 9.895C2.70069 9.2707 3.54749 8.91986 4.43055 8.91986C5.01276 8.91959 5.58484 9.07207 6.08968 9.36208C6.59452 9.65208 7.01416 10.0695 7.30723 10.5725L14.8714 6.1568C14.5737 5.64783 14.4168 5.0686 14.4176 4.47895C14.4178 4.04142 14.5043 3.60811 14.6719 3.20395C14.8395 2.79978 15.0848 2.43252 15.3943 2.12325C15.7038 1.81399 16.0714 1.56878 16.4757 1.4015C16.88 1.23423 17.3131 1.14826 17.7507 1.14844C18.188 1.14844 18.621 1.23444 19.025 1.40183C19.429 1.56921 19.7959 1.81462 20.1051 2.1239C20.4142 2.43318 20.6596 2.80053 20.8268 3.20459C20.9941 3.60865 21.0801 4.04165 21.0799 4.47895C21.0801 4.91619 20.9941 5.34901 20.8268 5.75299C20.6596 6.15698 20.4143 6.52419 20.1051 6.83336C19.7959 7.14254 19.429 7.38755 19.025 7.55479C18.6211 7.72204 18.1879 7.80803 17.7507 7.80786C17.1683 7.80819 16.5962 7.65602 16.0909 7.36628C15.5857 7.07655 15.1653 6.65965 14.8714 6.1568L7.30723 10.5725C7.60401 11.0813 7.76045 11.66 7.75978 12.2491C7.76075 12.8383 7.60384 13.4172 7.30594 13.9256L14.8766 18.3349C15.1699 17.833 15.5898 17.4167 16.0941 17.1277C16.5985 16.8386 17.1694 16.6868 17.7507 16.6874C18.1881 16.6874 18.6216 16.7736 19.0257 16.9411C19.4298 17.1086 19.7966 17.3541 20.1057 17.6635C20.4149 17.9729 20.6603 18.3403 20.8275 18.7445C20.9946 19.1487 21.0803 19.5818 21.0799 20.0192C21.0799 20.9022 20.7294 21.749 20.1051 22.3733C19.4808 22.9976 18.6336 23.3484 17.7507 23.3484C16.8675 23.3488 16.0206 22.9983 15.3956 22.3743C14.7706 21.7503 14.4186 20.9037 14.4176 20.0205V20.0205Z" stroke="#51526C" stroke-width="1.8" stroke-linecap="round"/>
</svg>
