<svg width="24" height="25" viewBox="0 0 24 25" fill="none" xmlns="http://www.w3.org/2000/svg">
<path d="M12.02 3.15625C8.71003 3.15625 6.02003 5.84625 6.02003 9.15625V12.0463C6.02003 12.6563 5.76003 13.5862 5.45003 14.1062L4.30003 16.0163C3.59003 17.1963 4.08003 18.5063 5.38003 18.9463C9.69003 20.3863 14.34 20.3863 18.65 18.9463C19.86 18.5463 20.39 17.1163 19.73 16.0163L18.58 14.1062C18.28 13.5862 18.02 12.6563 18.02 12.0463V9.15625C18.02 5.85625 15.32 3.15625 12.02 3.15625Z" stroke="#292D32" stroke-width="1.5" stroke-miterlimit="10" stroke-linecap="round"/>
<path d="M13.87 3.4475C13.56 3.3575 13.24 3.2875 12.91 3.2475C11.95 3.1275 11.03 3.1975 10.17 3.4475C10.46 2.7075 11.18 2.1875 12.02 2.1875C12.86 2.1875 13.58 2.7075 13.87 3.4475Z" stroke="#292D32" stroke-width="1.5" stroke-miterlimit="10" stroke-linecap="round" stroke-linejoin="round"/>
<path d="M15.02 19.3047C15.02 20.9547 13.67 22.3047 12.02 22.3047C11.2 22.3047 10.44 21.9647 9.90002 21.4247C9.36002 20.8847 9.02002 20.1247 9.02002 19.3047" stroke="#292D32" stroke-width="1.5" stroke-miterlimit="10"/>
</svg>
