<svg width="25" height="25" viewBox="0 0 25 25" fill="none" xmlns="http://www.w3.org/2000/svg">
<path d="M18.9717 7.4061C18.9117 7.3961 18.8417 7.3961 18.7817 7.4061C17.4017 7.3561 16.3017 6.2261 16.3017 4.8261C16.3017 3.3961 17.4517 2.24609 18.8817 2.24609C20.3117 2.24609 21.4617 3.4061 21.4617 4.8261C21.4517 6.2261 20.3517 7.3561 18.9717 7.4061Z" stroke="#292D32" stroke-width="1.5" stroke-linecap="round" stroke-linejoin="round"/>
<path d="M17.9417 14.6863C19.3117 14.9163 20.8217 14.6763 21.8817 13.9663C23.2917 13.0263 23.2917 11.4863 21.8817 10.5463C20.8117 9.83626 19.2817 9.59625 17.9117 9.83625" stroke="#292D32" stroke-width="1.5" stroke-linecap="round" stroke-linejoin="round"/>
<path d="M6.94169 7.4061C7.00169 7.3961 7.07169 7.3961 7.13169 7.4061C8.51169 7.3561 9.61169 6.2261 9.61169 4.8261C9.61169 3.3961 8.46169 2.24609 7.03169 2.24609C5.60169 2.24609 4.45169 3.4061 4.45169 4.8261C4.46169 6.2261 5.56169 7.3561 6.94169 7.4061Z" stroke="#292D32" stroke-width="1.5" stroke-linecap="round" stroke-linejoin="round"/>
<path d="M7.97168 14.6863C6.60168 14.9163 5.09168 14.6763 4.03168 13.9663C2.62168 13.0263 2.62168 11.4863 4.03168 10.5463C5.10168 9.83626 6.63168 9.59625 8.00168 9.83625" stroke="#292D32" stroke-width="1.5" stroke-linecap="round" stroke-linejoin="round"/>
<path d="M12.9717 14.8748C12.9117 14.8648 12.8417 14.8648 12.7817 14.8748C11.4017 14.8248 10.3017 13.6948 10.3017 12.2948C10.3017 10.8648 11.4517 9.71484 12.8817 9.71484C14.3117 9.71484 15.4617 10.8748 15.4617 12.2948C15.4517 13.6948 14.3517 14.8348 12.9717 14.8748Z" stroke="#292D32" stroke-width="1.5" stroke-linecap="round" stroke-linejoin="round"/>
<path d="M10.0617 18.0255C8.65168 18.9655 8.65168 20.5055 10.0617 21.4455C11.6617 22.5155 14.2817 22.5155 15.8817 21.4455C17.2917 20.5055 17.2917 18.9655 15.8817 18.0255C14.2917 16.9655 11.6617 16.9655 10.0617 18.0255Z" stroke="#292D32" stroke-width="1.5" stroke-linecap="round" stroke-linejoin="round"/>
</svg>
