<svg width="24" height="25" viewBox="0 0 24 25" fill="none" xmlns="http://www.w3.org/2000/svg">
<path d="M8 12.4453H15" stroke="#292D32" stroke-width="1.5" stroke-miterlimit="10" stroke-linecap="round" stroke-linejoin="round"/>
<path d="M8 16.4453H12.38" stroke="#292D32" stroke-width="1.5" stroke-miterlimit="10" stroke-linecap="round" stroke-linejoin="round"/>
<path d="M10 6.24609H14C16 6.24609 16 5.24609 16 4.24609C16 2.24609 15 2.24609 14 2.24609H10C9 2.24609 8 2.24609 8 4.24609C8 6.24609 9 6.24609 10 6.24609Z" stroke="#292D32" stroke-width="1.5" stroke-miterlimit="10" stroke-linecap="round" stroke-linejoin="round"/>
<path d="M16 4.26562C19.33 4.44563 21 5.67562 21 10.2456V16.2456C21 20.2456 20 22.2456 15 22.2456H9C4 22.2456 3 20.2456 3 16.2456V10.2456C3 5.68563 4.67 4.44563 8 4.26562" stroke="#292D32" stroke-width="1.5" stroke-miterlimit="10" stroke-linecap="round" stroke-linejoin="round"/>
</svg>
