<svg width="20" height="19" viewBox="0 0 20 19" fill="none" xmlns="http://www.w3.org/2000/svg">
<path d="M8.4001 2.09881C8.55923 2.09881 8.71184 2.16203 8.82436 2.27455C8.93688 2.38707 9.0001 2.53968 9.0001 2.69881C9.0001 2.85794 8.93688 3.01056 8.82436 3.12308C8.71184 3.2356 8.55923 3.29881 8.4001 3.29881H4.2001C3.56358 3.29881 2.95313 3.55167 2.50304 4.00176C2.05295 4.45184 1.8001 5.06229 1.8001 5.69881V15.2988C1.8001 15.9353 2.05295 16.5458 2.50304 16.9959C2.95313 17.446 3.56358 17.6988 4.2001 17.6988H13.8001C14.4366 17.6988 15.0471 17.446 15.4972 16.9959C15.9472 16.5458 16.2001 15.9353 16.2001 15.2988V13.4988C16.2001 13.3397 16.2633 13.1871 16.3758 13.0745C16.4884 12.962 16.641 12.8988 16.8001 12.8988C16.9592 12.8988 17.1118 12.962 17.2244 13.0745C17.3369 13.1871 17.4001 13.3397 17.4001 13.4988V15.2988C17.4001 16.2536 17.0208 17.1693 16.3457 17.8444C15.6706 18.5195 14.7549 18.8988 13.8001 18.8988H4.2001C3.24532 18.8988 2.32964 18.5195 1.65451 17.8444C0.979382 17.1693 0.600098 16.2536 0.600098 15.2988V5.69881C0.600098 4.74403 0.979382 3.82836 1.65451 3.15323C2.32964 2.4781 3.24532 2.09881 4.2001 2.09881H8.4001ZM12.9565 0.950414C13.0625 0.903186 13.1798 0.887686 13.2944 0.905789C13.409 0.923892 13.5159 0.974822 13.6021 1.05241L19.6021 6.45241C19.6648 6.50868 19.7149 6.57751 19.7492 6.65442C19.7835 6.73133 19.8012 6.8146 19.8012 6.89881C19.8012 6.98303 19.7835 7.0663 19.7492 7.14321C19.7149 7.22012 19.6648 7.28894 19.6021 7.34521L13.6021 12.7452C13.5159 12.823 13.4089 12.8741 13.2942 12.8924C13.1795 12.9106 13.062 12.8951 12.9559 12.8479C12.8498 12.8006 12.7598 12.7236 12.6966 12.6261C12.6334 12.5286 12.5999 12.415 12.6001 12.2988V9.70681C10.9201 9.86041 9.4021 10.6428 8.1601 11.6364C6.9421 12.612 6.0301 13.758 5.5261 14.6172L5.3365 14.9664C5.27601 15.0871 5.17658 15.1839 5.05428 15.2411C4.93199 15.2983 4.79398 15.3125 4.66257 15.2816C4.53116 15.2507 4.41402 15.1763 4.3301 15.0705C4.24618 14.9648 4.20038 14.8338 4.2001 14.6988C4.2001 12.24 4.6585 9.55801 6.0217 7.47001C7.3321 5.46841 9.4417 4.07041 12.6001 3.91441V1.49881L12.6061 1.41121C12.6209 1.31109 12.6608 1.21633 12.722 1.13576C12.7833 1.05519 12.864 0.991432 12.9565 0.950414ZM13.8001 4.49881C13.8001 4.65794 13.7369 4.81056 13.6244 4.92308C13.5118 5.0356 13.3592 5.09881 13.2001 5.09881C10.0945 5.09881 8.1877 6.35281 7.0273 8.12641C6.2053 9.38521 5.7397 10.9344 5.5321 12.5472C6.0517 11.9232 6.6841 11.2824 7.4101 10.6992C8.9317 9.48241 10.9201 8.47801 13.2001 8.47801C13.3592 8.47801 13.5118 8.54123 13.6244 8.65375C13.7369 8.76627 13.8001 8.91888 13.8001 9.07801V10.95L18.3001 6.89881L13.8001 2.84641V4.49881Z" fill="black"/>
</svg>
