<svg width="20" height="21" viewBox="0 0 20 21" fill="none" xmlns="http://www.w3.org/2000/svg">
<path d="M13.7282 4.75262L15.4932 6.51678M14.8632 3.19845L10.0907 7.97095C9.84408 8.2172 9.6759 8.53094 9.60734 8.87262L9.1665 11.0793L11.3732 10.6376C11.7148 10.5693 12.0282 10.4018 12.2748 10.1551L17.0473 5.38262C17.1908 5.2392 17.3045 5.06894 17.3821 4.88156C17.4597 4.69418 17.4997 4.49335 17.4997 4.29053C17.4997 4.08771 17.4597 3.88688 17.3821 3.6995C17.3045 3.51212 17.1908 3.34186 17.0473 3.19845C16.9039 3.05504 16.7337 2.94127 16.5463 2.86366C16.3589 2.78604 16.1581 2.74609 15.9553 2.74609C15.7524 2.74609 15.5516 2.78604 15.3642 2.86366C15.1768 2.94127 15.0066 3.05504 14.8632 3.19845Z" stroke="#474B6D" stroke-width="1.66667" stroke-linecap="round" stroke-linejoin="round"/>
<path d="M15.8335 12.7474V15.2474C15.8335 15.6894 15.6579 16.1133 15.3453 16.4259C15.0328 16.7385 14.6089 16.9141 14.1668 16.9141H5.00016C4.55814 16.9141 4.13421 16.7385 3.82165 16.4259C3.50909 16.1133 3.3335 15.6894 3.3335 15.2474V6.08073C3.3335 5.6387 3.50909 5.21478 3.82165 4.90222C4.13421 4.58966 4.55814 4.41406 5.00016 4.41406H7.50016" stroke="#474B6D" stroke-width="1.66667" stroke-linecap="round" stroke-linejoin="round"/>
</svg>
