<svg width="36" height="11" viewBox="0 0 36 11" fill="none" xmlns="http://www.w3.org/2000/svg">
<path d="M13.3999 10.6814L15.1523 0.824219H17.8904L16.1928 10.6814H13.3999Z" fill="#3C58BF"/>
<path d="M13.3999 10.6814L15.6451 0.824219H17.8904L16.1928 10.6814H13.3999Z" fill="#293688"/>
<path d="M26.1046 0.934188C25.557 0.715141 24.6808 0.496094 23.5856 0.496094C20.8475 0.496094 18.8761 1.86514 18.8761 3.83657C18.8761 5.31514 20.2451 6.08181 21.3404 6.57466C22.4356 7.06752 22.7642 7.39609 22.7642 7.83419C22.7642 8.49133 21.888 8.8199 21.1213 8.8199C20.0261 8.8199 19.4237 8.65562 18.4927 8.27228L18.1094 8.108L17.7261 10.3532C18.3832 10.627 19.588 10.9009 20.8475 10.9009C23.7499 10.9009 25.6665 9.53181 25.6665 7.45085C25.6665 6.30085 24.9546 5.42466 23.3118 4.71276C22.3261 4.2199 21.7237 3.94609 21.7237 3.45324C21.7237 3.01514 22.2165 2.57705 23.3118 2.57705C24.2427 2.57705 24.8999 2.74133 25.3927 2.96038L25.6665 3.0699L26.1046 0.934188Z" fill="#3C58BF"/>
<path d="M26.1046 0.934188C25.557 0.715141 24.6808 0.496094 23.5856 0.496094C20.8475 0.496094 19.3689 1.86514 19.3689 3.83657C19.3689 5.31514 20.2451 6.08181 21.3404 6.57466C22.4356 7.06752 22.7642 7.39609 22.7642 7.83419C22.7642 8.49133 21.888 8.8199 21.1213 8.8199C20.0261 8.8199 19.4237 8.65562 18.4927 8.27228L18.1094 8.108L17.7261 10.3532C18.3832 10.627 19.588 10.9009 20.8475 10.9009C23.7499 10.9009 25.6665 9.53181 25.6665 7.45085C25.6665 6.30085 24.9546 5.42466 23.3118 4.71276C22.3261 4.2199 21.7237 3.94609 21.7237 3.45324C21.7237 3.01514 22.2165 2.57705 23.3118 2.57705C24.2427 2.57705 24.8999 2.74133 25.3927 2.96038L25.6665 3.0699L26.1046 0.934188Z" fill="#293688"/>
<path d="M30.8151 0.824219C30.158 0.824219 29.6651 0.878981 29.3913 1.53612L25.2842 10.6814H28.2413L28.7889 9.0385H32.2937L32.6223 10.6814H35.2508L32.9508 0.824219H30.8151V0.824219ZM29.5556 7.39565C29.7199 6.90279 30.6508 4.49327 30.6508 4.49327C30.6508 4.49327 30.8699 3.89089 31.0342 3.50755L31.1985 4.4385C31.1985 4.4385 31.7461 6.90279 31.8556 7.45041H29.5556V7.39565Z" fill="#3C58BF"/>
<path d="M31.4723 0.824219C30.8151 0.824219 30.3223 0.878981 30.0485 1.53612L25.2842 10.6814H28.2413L28.7889 9.0385H32.2937L32.6223 10.6814H35.2508L32.9508 0.824219H31.4723V0.824219ZM29.5556 7.39565C29.7747 6.84803 30.6508 4.49327 30.6508 4.49327C30.6508 4.49327 30.8699 3.89089 31.0342 3.50755L31.1985 4.4385C31.1985 4.4385 31.7461 6.90279 31.8556 7.45041H29.5556V7.39565Z" fill="#293688"/>
<path d="M8.36105 7.72414L8.08724 6.30033C7.59438 4.65748 6.00629 2.85033 4.25391 1.97414L6.71819 10.736H9.67533L14.111 0.878906H11.1539L8.36105 7.72414Z" fill="#3C58BF"/>
<path d="M8.36105 7.72414L8.08724 6.30033C7.59438 4.65748 6.00629 2.85033 4.25391 1.97414L6.71819 10.736H9.67533L14.111 0.878906H11.7015L8.36105 7.72414Z" fill="#293688"/>
<path d="M0.75 0.824219L1.24286 0.933743C4.74762 1.75517 7.15714 3.83612 8.08809 6.30041L7.10238 1.64565C6.93809 0.988504 6.44524 0.824219 5.84286 0.824219H0.75V0.824219Z" fill="#FFBC00"/>
<path d="M0.75 0.824219C4.25476 1.64565 7.15714 3.78136 8.08809 6.24565L7.15714 2.35755C6.99285 1.70041 6.44524 1.31708 5.84286 1.31708L0.75 0.824219Z" fill="#F7981D"/>
<path d="M0.75 0.824219C4.25476 1.64565 7.15714 3.78136 8.08809 6.24565L7.43095 4.10993C7.26666 3.45279 7.04762 2.79565 6.28095 2.52184L0.75 0.824219Z" fill="#ED7C00"/>
<path d="M11.1005 7.39806L9.23863 5.53616L8.36244 7.61711L8.14339 6.24807C7.65053 4.60521 6.06244 2.79807 4.31006 1.92188L6.77434 10.6838H9.73149L11.1005 7.39806Z" fill="#051244"/>
<path d="M16.1928 10.683L13.838 8.27344L13.3999 10.683H16.1928Z" fill="#051244"/>
<path d="M22.4904 7.28906C22.7094 7.50811 22.8189 7.6724 22.7642 7.89144C22.7642 8.54859 21.888 8.87716 21.1213 8.87716C20.0261 8.87716 19.4237 8.71287 18.4927 8.32954L18.1094 8.16525L17.7261 10.4105C18.3832 10.6843 19.588 10.9581 20.8475 10.9581C22.5999 10.9581 24.0237 10.4653 24.8451 9.58906L22.4904 7.28906Z" fill="#051244"/>
<path d="M25.668 10.6855H28.2418L28.7894 9.04267H32.2942L32.6227 10.6855H35.2513L34.3203 6.68791L31.0346 3.51172L31.1989 4.38791C31.1989 4.38791 31.7465 6.85219 31.8561 7.39981H29.5561C29.7751 6.85219 30.6513 4.49743 30.6513 4.49743C30.6513 4.49743 30.8703 3.89505 31.0346 3.51172" fill="#051244"/>
</svg>
