<svg width="27" height="28" viewBox="0 0 27 28" fill="none" xmlns="http://www.w3.org/2000/svg">
<path d="M18.3084 21.65C20.0289 21.65 21.4309 20.2357 21.4309 18.5C21.4309 16.7643 20.0289 15.35 18.3084 15.35C16.575 15.35 15.1858 16.7643 15.1858 18.5C15.1858 20.2357 16.575 21.65 18.3084 21.65ZM24.9357 19.3743L26.822 20.8657C26.9877 21.0071 27.0387 21.2386 26.9239 21.4443L25.1397 24.5557C25.0249 24.7486 24.8083 24.8257 24.5916 24.7486L22.374 23.8486C21.9152 24.2086 21.4054 24.5043 20.8701 24.7357L20.526 27.1143C20.5005 27.3329 20.3093 27.5 20.0926 27.5H16.5241C16.2946 27.5 16.1162 27.3329 16.078 27.1143L15.7466 24.7357C15.1986 24.5043 14.7015 24.2086 14.2427 23.8486L12.0123 24.7486C11.8212 24.8257 11.579 24.7486 11.4771 24.5557L9.69276 21.4443C9.57805 21.2386 9.62903 21.0071 9.79472 20.8657L11.681 19.3743L11.6172 18.5L11.681 17.6129L9.79472 16.1343C9.62903 15.9929 9.57805 15.7486 9.69276 15.5557L11.4771 12.4443C11.579 12.2386 11.8212 12.1614 12.0123 12.2386L14.2427 13.1514C14.7015 12.7914 15.1986 12.4829 15.7466 12.2643L16.078 9.87286C16.1162 9.66714 16.2946 9.5 16.5241 9.5H20.0926C20.3093 9.5 20.5005 9.66714 20.526 9.87286L20.8701 12.2643C21.4054 12.4829 21.9152 12.7914 22.374 13.1514L24.5916 12.2386C24.8083 12.1614 25.0249 12.2386 25.1397 12.4443L26.9239 15.5557C27.0387 15.7486 26.9877 15.9929 26.822 16.1343L24.9357 17.6129L24.9995 18.5L24.9357 19.3743ZM6.57024 8.30429C7.67905 8.30429 8.5712 7.40429 8.5712 6.28571C8.5712 5.16714 7.67905 4.25429 6.57024 4.25429C6.03617 4.25429 5.52398 4.46831 5.14634 4.84928C4.76869 5.23024 4.55654 5.74695 4.55654 6.28571C4.55654 7.40429 5.46143 8.30429 6.57024 8.30429ZM10.8271 6.85143L12.0633 7.80286C12.1525 7.89286 12.178 8.04714 12.1016 8.17571L10.9545 10.1814C10.8908 10.31 10.7378 10.3614 10.6104 10.31L9.18296 9.73143L8.23983 10.2971L7.99768 11.8271C7.97219 11.9686 7.85748 12.0714 7.71729 12.0714H5.42319C5.27025 12.0714 5.15555 11.9686 5.13006 11.8271L4.92614 10.2971L3.95752 9.73143L2.5046 10.31C2.38989 10.3614 2.2497 10.31 2.17323 10.1814L1.02618 8.17571C0.94971 8.04714 0.987945 7.89286 1.0899 7.80286L2.30068 6.85143L2.26244 6.28571L2.30068 5.72L1.0899 4.76857C0.987945 4.67857 0.94971 4.52429 1.02618 4.39571L2.17323 2.39C2.2497 2.26143 2.38989 2.21 2.5046 2.26143L3.94478 2.84L4.92614 2.27429L5.13006 0.744286C5.15555 0.602857 5.27025 0.5 5.42319 0.5H7.71729C7.85748 0.5 7.97219 0.602857 7.99768 0.744286L8.23983 2.27429L9.18296 2.84L10.6104 2.26143C10.7378 2.21 10.8908 2.26143 10.9545 2.39L12.1016 4.39571C12.178 4.52429 12.1525 4.67857 12.0633 4.76857L10.8271 5.72L10.8653 6.28571L10.8271 6.85143Z" fill="#A5A5B8"/>
</svg>
