<svg width="21" height="21" viewBox="0 0 21 21" fill="none" xmlns="http://www.w3.org/2000/svg">
<path d="M10.9166 18.8349H3.89993C2.93327 18.8349 2.1416 18.0599 2.1416 17.1099V4.74326C2.1416 2.55993 3.7666 1.56826 5.75827 2.54326L9.45827 4.35993C10.2583 4.75159 10.9166 5.79326 10.9166 6.67659V18.8349Z" stroke="white" stroke-width="1.25" stroke-linecap="round" stroke-linejoin="round"/>
<path d="M18.8084 13.0503V16.2003C18.8084 18.0003 17.9751 18.8336 16.1751 18.8336H10.9167V9.18359L11.3084 9.26693L15.0584 10.1086L16.7501 10.4836C17.8501 10.7253 18.7501 11.2919 18.8001 12.8919C18.8084 12.9419 18.8084 12.9919 18.8084 13.0503Z" stroke="white" stroke-width="1.25" stroke-linecap="round" stroke-linejoin="round"/>
<path d="M5.08325 8H7.97492" stroke="white" stroke-width="1.25" stroke-linecap="round" stroke-linejoin="round"/>
<path d="M5.08325 11.332H7.97492" stroke="white" stroke-width="1.25" stroke-linecap="round" stroke-linejoin="round"/>
<path d="M15.0583 10.1092V12.7926C15.0583 13.8259 14.2167 14.6676 13.1833 14.6676C12.15 14.6676 11.3083 13.8259 11.3083 12.7926V9.26758L15.0583 10.1092Z" stroke="white" stroke-width="1.25" stroke-linecap="round" stroke-linejoin="round"/>
<path d="M18.8 12.8927C18.75 13.876 17.9333 14.6677 16.9333 14.6677C15.9 14.6677 15.0583 13.826 15.0583 12.7927V10.1094L16.75 10.4844C17.85 10.726 18.75 11.2927 18.8 12.8927Z" stroke="white" stroke-width="1.25" stroke-linecap="round" stroke-linejoin="round"/>
</svg>
