<svg width="21" height="21" viewBox="0 0 21 21" fill="none" xmlns="http://www.w3.org/2000/svg">
<path d="M10.9166 18.8349H3.89998C2.93331 18.8349 2.14164 18.0599 2.14164 17.1099V4.74326C2.14164 2.55993 3.76664 1.56826 5.75831 2.54326L9.45831 4.35993C10.2583 4.75159 10.9166 5.79326 10.9166 6.67659V18.8349Z" stroke="#343434" stroke-width="1.25" stroke-linecap="round" stroke-linejoin="round"/>
<path d="M18.8083 13.0503V16.2003C18.8083 18.0003 17.975 18.8336 16.175 18.8336H10.9166V9.18359L11.3083 9.26693L15.0583 10.1086L16.75 10.4836C17.85 10.7253 18.75 11.2919 18.8 12.8919C18.8083 12.9419 18.8083 12.9919 18.8083 13.0503Z" stroke="#343434" stroke-width="1.25" stroke-linecap="round" stroke-linejoin="round"/>
<path d="M5.08331 8H7.97498" stroke="#343434" stroke-width="1.25" stroke-linecap="round" stroke-linejoin="round"/>
<path d="M5.08331 11.332H7.97498" stroke="#343434" stroke-width="1.25" stroke-linecap="round" stroke-linejoin="round"/>
<path d="M15.0583 10.1092V12.7926C15.0583 13.8259 14.2166 14.6676 13.1833 14.6676C12.15 14.6676 11.3083 13.8259 11.3083 12.7926V9.26758L15.0583 10.1092Z" stroke="#343434" stroke-width="1.25" stroke-linecap="round" stroke-linejoin="round"/>
<path d="M18.8 12.8927C18.75 13.876 17.9333 14.6677 16.9333 14.6677C15.9 14.6677 15.0583 13.826 15.0583 12.7927V10.1094L16.75 10.4844C17.85 10.726 18.75 11.2927 18.8 12.8927Z" stroke="#343434" stroke-width="1.25" stroke-linecap="round" stroke-linejoin="round"/>
</svg>
