<svg width="21" height="21" viewBox="0 0 21 21" fill="none" xmlns="http://www.w3.org/2000/svg">
<path d="M15.4999 6.46797C15.4499 6.45964 15.3916 6.45964 15.3416 6.46797C14.1916 6.42631 13.2749 5.48464 13.2749 4.31797C13.2749 3.1263 14.2333 2.16797 15.4249 2.16797C16.6166 2.16797 17.5749 3.13464 17.5749 4.31797C17.5666 5.48464 16.6499 6.42631 15.4999 6.46797Z" stroke="white" stroke-width="1.25" stroke-linecap="round" stroke-linejoin="round"/>
<path d="M14.6416 12.5348C15.7833 12.7264 17.0417 12.5264 17.925 11.9348C19.1 11.1514 19.1 9.8681 17.925 9.08477C17.0333 8.4931 15.7583 8.2931 14.6166 8.4931" stroke="white" stroke-width="1.25" stroke-linecap="round" stroke-linejoin="round"/>
<path d="M5.47499 6.46797C5.52499 6.45964 5.58332 6.45964 5.63332 6.46797C6.78332 6.42631 7.69999 5.48464 7.69999 4.31797C7.69999 3.1263 6.74165 2.16797 5.54999 2.16797C4.35832 2.16797 3.39999 3.13464 3.39999 4.31797C3.40832 5.48464 4.32499 6.42631 5.47499 6.46797Z" stroke="white" stroke-width="1.25" stroke-linecap="round" stroke-linejoin="round"/>
<path d="M6.33328 12.5348C5.19162 12.7264 3.93328 12.5264 3.04995 11.9348C1.87495 11.1514 1.87495 9.8681 3.04995 9.08477C3.94162 8.4931 5.21662 8.2931 6.35828 8.4931" stroke="white" stroke-width="1.25" stroke-linecap="round" stroke-linejoin="round"/>
<path d="M10.4999 12.6926C10.4499 12.6842 10.3915 12.6842 10.3415 12.6926C9.19155 12.6509 8.27488 11.7092 8.27488 10.5426C8.27488 9.35091 9.23321 8.39258 10.4249 8.39258C11.6165 8.39258 12.5749 9.35925 12.5749 10.5426C12.5665 11.7092 11.6499 12.6592 10.4999 12.6926Z" stroke="white" stroke-width="1.25" stroke-linecap="round" stroke-linejoin="round"/>
<path d="M8.07499 15.3168C6.89999 16.1001 6.89999 17.3835 8.07499 18.1668C9.40832 19.0585 11.5917 19.0585 12.925 18.1668C14.1 17.3835 14.1 16.1001 12.925 15.3168C11.6 14.4335 9.40832 14.4335 8.07499 15.3168Z" stroke="white" stroke-width="1.25" stroke-linecap="round" stroke-linejoin="round"/>
</svg>
