<svg width="20" height="21" viewBox="0 0 20 21" fill="none" xmlns="http://www.w3.org/2000/svg">
<path d="M7.63314 9.55964C7.5498 9.5513 7.4498 9.5513 7.35814 9.55964C5.3748 9.49297 3.7998 7.86797 3.7998 5.86797C3.7998 3.8263 5.4498 2.16797 7.4998 2.16797C9.54147 2.16797 11.1998 3.8263 11.1998 5.86797C11.1915 7.86797 9.61647 9.49297 7.63314 9.55964Z" stroke="white" stroke-width="1.25" stroke-linecap="round" stroke-linejoin="round"/>
<path d="M13.6747 3.83203C15.2914 3.83203 16.5914 5.14036 16.5914 6.7487C16.5914 8.3237 15.3414 9.60703 13.7831 9.66536C13.7164 9.65703 13.6414 9.65703 13.5664 9.66536" stroke="white" stroke-width="1.25" stroke-linecap="round" stroke-linejoin="round"/>
<path d="M3.4666 12.632C1.44993 13.982 1.44993 16.182 3.4666 17.5237C5.75827 19.057 9.5166 19.057 11.8083 17.5237C13.8249 16.1737 13.8249 13.9737 11.8083 12.632C9.52494 11.107 5.7666 11.107 3.4666 12.632Z" stroke="white" stroke-width="1.25" stroke-linecap="round" stroke-linejoin="round"/>
<path d="M15.2832 17.168C15.8832 17.043 16.4499 16.8013 16.9165 16.443C18.2165 15.468 18.2165 13.8596 16.9165 12.8846C16.4582 12.5346 15.8999 12.3013 15.3082 12.168" stroke="white" stroke-width="1.25" stroke-linecap="round" stroke-linejoin="round"/>
</svg>
