<svg width="21" height="21" viewBox="0 0 21 21" fill="none" xmlns="http://www.w3.org/2000/svg">
<path d="M8.13324 9.55964C8.04991 9.5513 7.94991 9.5513 7.85824 9.55964C5.87491 9.49297 4.29991 7.86797 4.29991 5.86797C4.29991 3.8263 5.94991 2.16797 7.99991 2.16797C10.0416 2.16797 11.6999 3.8263 11.6999 5.86797C11.6916 7.86797 10.1166 9.49297 8.13324 9.55964Z" stroke="#343434" stroke-width="1.25" stroke-linecap="round" stroke-linejoin="round"/>
<path d="M14.175 3.83203C15.7916 3.83203 17.0916 5.14036 17.0916 6.7487C17.0916 8.3237 15.8416 9.60703 14.2833 9.66536C14.2166 9.65703 14.1416 9.65703 14.0666 9.66536" stroke="#343434" stroke-width="1.25" stroke-linecap="round" stroke-linejoin="round"/>
<path d="M3.96671 12.632C1.95004 13.982 1.95004 16.182 3.96671 17.5237C6.25837 19.057 10.0167 19.057 12.3084 17.5237C14.325 16.1737 14.325 13.9737 12.3084 12.632C10.025 11.107 6.26671 11.107 3.96671 12.632Z" stroke="#343434" stroke-width="1.25" stroke-linecap="round" stroke-linejoin="round"/>
<path d="M15.7832 17.168C16.3832 17.043 16.9499 16.8013 17.4165 16.443C18.7165 15.468 18.7165 13.8596 17.4165 12.8846C16.9582 12.5346 16.3999 12.3013 15.8082 12.168" stroke="#343434" stroke-width="1.25" stroke-linecap="round" stroke-linejoin="round"/>
</svg>
