<svg width="20" height="21" viewBox="0 0 20 21" fill="none" xmlns="http://www.w3.org/2000/svg">
<path d="M10 10.5013C12.3012 10.5013 14.1667 8.63582 14.1667 6.33464C14.1667 4.03345 12.3012 2.16797 10 2.16797C7.69882 2.16797 5.83334 4.03345 5.83334 6.33464C5.83334 8.63582 7.69882 10.5013 10 10.5013Z" stroke="#343434" stroke-width="1.25" stroke-linecap="round" stroke-linejoin="round"/>
<path d="M2.84158 18.8333C2.84158 15.6083 6.04991 13 9.99991 13C10.7999 13 11.5749 13.1083 12.2999 13.3083" stroke="#343434" stroke-width="1.25" stroke-linecap="round" stroke-linejoin="round"/>
<path d="M18.3333 15.5013C18.3333 15.768 18.3 16.0263 18.2333 16.2763C18.1583 16.6096 18.025 16.9346 17.85 17.218C17.275 18.1846 16.2167 18.8346 15 18.8346C14.1417 18.8346 13.3667 18.5096 12.7833 17.9763C12.5333 17.7596 12.3166 17.5013 12.15 17.218C11.8416 16.718 11.6667 16.1263 11.6667 15.5013C11.6667 14.6013 12.025 13.7763 12.6083 13.1763C13.2167 12.5513 14.0667 12.168 15 12.168C15.9833 12.168 16.875 12.593 17.475 13.2763C18.0083 13.868 18.3333 14.6513 18.3333 15.5013Z" stroke="#343434" stroke-width="1.25" stroke-miterlimit="10" stroke-linecap="round" stroke-linejoin="round"/>
<path d="M16.2417 15.4844H13.7584" stroke="#343434" stroke-width="1.25" stroke-miterlimit="10" stroke-linecap="round" stroke-linejoin="round"/>
<path d="M15 14.2676V16.7592" stroke="#343434" stroke-width="1.25" stroke-miterlimit="10" stroke-linecap="round" stroke-linejoin="round"/>
</svg>
