<svg width="20" height="21" viewBox="0 0 20 21" fill="none" xmlns="http://www.w3.org/2000/svg">
<path d="M10.0002 10.4993C12.3013 10.4993 14.1668 8.63387 14.1668 6.33268C14.1668 4.0315 12.3013 2.16602 10.0002 2.16602C7.69898 2.16602 5.8335 4.0315 5.8335 6.33268C5.8335 8.63387 7.69898 10.4993 10.0002 10.4993Z" stroke="white" stroke-width="1.25" stroke-linecap="round" stroke-linejoin="round"/>
<path d="M2.8418 18.8333C2.8418 15.6083 6.05013 13 10.0001 13C10.8001 13 11.5751 13.1083 12.3001 13.3083" stroke="white" stroke-width="1.25" stroke-linecap="round" stroke-linejoin="round"/>
<path d="M18.3332 15.4993C18.3332 15.766 18.2998 16.0243 18.2332 16.2743C18.1582 16.6077 18.0248 16.9327 17.8498 17.216C17.2748 18.1827 16.2165 18.8327 14.9998 18.8327C14.1415 18.8327 13.3665 18.5077 12.7832 17.9743C12.5332 17.7577 12.3165 17.4993 12.1498 17.216C11.8415 16.716 11.6665 16.1243 11.6665 15.4993C11.6665 14.5993 12.0248 13.7744 12.6082 13.1744C13.2165 12.5494 14.0665 12.166 14.9998 12.166C15.9832 12.166 16.8748 12.591 17.4748 13.2744C18.0082 13.866 18.3332 14.6493 18.3332 15.4993Z" stroke="white" stroke-width="1.25" stroke-miterlimit="10" stroke-linecap="round" stroke-linejoin="round"/>
<path d="M16.2416 15.4844H13.7583" stroke="white" stroke-width="1.25" stroke-miterlimit="10" stroke-linecap="round" stroke-linejoin="round"/>
<path d="M15 14.2676V16.7592" stroke="white" stroke-width="1.25" stroke-miterlimit="10" stroke-linecap="round" stroke-linejoin="round"/>
</svg>
