<svg width="21" height="21" viewBox="0 0 21 21" fill="none" xmlns="http://www.w3.org/2000/svg">
<path d="M15.4999 6.46797C15.4499 6.45964 15.3916 6.45964 15.3416 6.46797C14.1916 6.42631 13.2749 5.48464 13.2749 4.31797C13.2749 3.1263 14.2332 2.16797 15.4249 2.16797C16.6166 2.16797 17.5749 3.13464 17.5749 4.31797C17.5666 5.48464 16.6499 6.42631 15.4999 6.46797Z" stroke="#343434" stroke-width="1.25" stroke-linecap="round" stroke-linejoin="round"/>
<path d="M14.6417 12.5348C15.7834 12.7264 17.0417 12.5264 17.925 11.9348C19.1 11.1514 19.1 9.8681 17.925 9.08477C17.0334 8.4931 15.7584 8.2931 14.6167 8.4931" stroke="#343434" stroke-width="1.25" stroke-linecap="round" stroke-linejoin="round"/>
<path d="M5.4749 6.46797C5.5249 6.45964 5.58324 6.45964 5.63324 6.46797C6.78324 6.42631 7.6999 5.48464 7.6999 4.31797C7.6999 3.1263 6.74157 2.16797 5.5499 2.16797C4.35824 2.16797 3.3999 3.13464 3.3999 4.31797C3.40824 5.48464 4.3249 6.42631 5.4749 6.46797Z" stroke="#343434" stroke-width="1.25" stroke-linecap="round" stroke-linejoin="round"/>
<path d="M6.33328 12.5348C5.19162 12.7264 3.93328 12.5264 3.04995 11.9348C1.87495 11.1514 1.87495 9.8681 3.04995 9.08477C3.94162 8.4931 5.21662 8.2931 6.35828 8.4931" stroke="#343434" stroke-width="1.25" stroke-linecap="round" stroke-linejoin="round"/>
<path d="M10.4999 12.6926C10.4499 12.6842 10.3916 12.6842 10.3416 12.6926C9.19157 12.6509 8.2749 11.7092 8.2749 10.5426C8.2749 9.35091 9.23323 8.39258 10.4249 8.39258C11.6166 8.39258 12.5749 9.35925 12.5749 10.5426C12.5666 11.7092 11.6499 12.6592 10.4999 12.6926Z" stroke="#343434" stroke-width="1.25" stroke-linecap="round" stroke-linejoin="round"/>
<path d="M8.0751 15.3168C6.9001 16.1001 6.9001 17.3835 8.0751 18.1668C9.40843 19.0585 11.5918 19.0585 12.9251 18.1668C14.1001 17.3835 14.1001 16.1001 12.9251 15.3168C11.6001 14.4335 9.40843 14.4335 8.0751 15.3168Z" stroke="#343434" stroke-width="1.25" stroke-linecap="round" stroke-linejoin="round"/>
</svg>
