<svg width="24" height="25" viewBox="0 0 24 25" fill="none" xmlns="http://www.w3.org/2000/svg">
<g clip-path="url(#clip0_4605_1539)">
<path d="M23.1551 14.5175C23.8711 8.49054 22.8111 4.68554 20.8991 2.96454L20.9001 2.96354C17.8141 0.0245364 7.39208 -0.410464 3.70008 3.09554C2.04208 4.81054 1.45808 7.32754 1.39408 10.4435C1.33008 13.5605 1.25408 19.3995 6.69508 20.9835H6.70008L6.69508 23.4025C6.69508 23.4025 6.65808 24.3825 7.28408 24.5795C8.00008 24.8115 8.32408 24.3565 10.5511 21.6965C14.2751 22.0195 17.1351 21.2795 17.4601 21.1715C18.2121 20.9195 22.4671 20.3565 23.1551 14.5175ZM10.9181 19.9945C10.9181 19.9945 8.56108 22.9335 7.82808 23.6965C7.58808 23.9445 7.32508 23.9215 7.32908 23.4295C7.32908 23.1065 7.34708 19.4135 7.34708 19.4135C2.73408 18.0915 3.00608 13.1195 3.05608 10.5185C3.10608 7.91654 3.58208 5.78554 4.98608 4.35054C8.22508 1.31354 17.3621 1.99254 19.6901 4.18054C22.5361 6.70354 21.5231 13.8315 21.5291 14.0745C20.9441 18.9485 17.4961 19.2575 16.8621 19.4685C16.5911 19.5585 14.0761 20.2055 10.9181 19.9945Z" fill="white"/>
<path d="M23.1551 14.5175C23.8711 8.49054 22.8111 4.68554 20.8991 2.96454L20.9001 2.96354C17.8141 0.0245364 7.39208 -0.410464 3.70008 3.09554C2.04208 4.81054 1.45808 7.32754 1.39408 10.4435C1.33008 13.5605 1.25408 19.3995 6.69508 20.9835H6.70008L6.69508 23.4025C6.69508 23.4025 6.65808 24.3825 7.28408 24.5795C8.00008 24.8115 8.32408 24.3565 10.5511 21.6965C14.2751 22.0195 17.1351 21.2795 17.4601 21.1715C18.2121 20.9195 22.4671 20.3565 23.1551 14.5175ZM10.9181 19.9945C10.9181 19.9945 8.56108 22.9335 7.82808 23.6965C7.58808 23.9445 7.32508 23.9215 7.32908 23.4295C7.32908 23.1065 7.34708 19.4135 7.34708 19.4135C2.73408 18.0915 3.00608 13.1195 3.05608 10.5185C3.10608 7.91654 3.58208 5.78554 4.98608 4.35054C8.22508 1.31354 17.3621 1.99254 19.6901 4.18054C22.5361 6.70354 21.5231 13.8315 21.5291 14.0745C20.9441 18.9485 17.4961 19.2575 16.8621 19.4685C16.5911 19.5585 14.0761 20.2055 10.9181 19.9945Z" fill="white"/>
<path d="M12.222 4.92188C11.837 4.92188 11.837 5.52188 12.222 5.52688C15.209 5.54988 17.669 7.63188 17.696 11.4509C17.696 11.8539 18.286 11.8489 18.281 11.4459C18.249 7.33088 15.562 4.94488 12.222 4.92188Z" fill="#8811FF"/>
<path d="M16.1509 10.818C16.1419 11.216 16.7309 11.235 16.7359 10.832C16.7849 8.56304 15.3859 6.69404 12.7569 6.49704C12.3719 6.46904 12.3319 7.07404 12.7159 7.10204C14.9959 7.27504 16.1969 8.83104 16.1509 10.818Z" fill="#8811FF"/>
<path d="M15.521 13.3991C15.027 13.1131 14.524 13.2911 14.316 13.5721L13.881 14.1351C13.66 14.4211 13.247 14.3831 13.247 14.3831C10.233 13.5861 9.42697 10.4321 9.42697 10.4321C9.42697 10.4321 9.38997 10.0051 9.66597 9.7761L10.21 9.3261C10.482 9.1101 10.654 8.5901 10.377 8.0791C9.63697 6.7421 9.13997 6.2811 8.88697 5.9271C8.62097 5.5941 8.22097 5.5191 7.80497 5.7441H7.79597C6.93097 6.2501 5.98397 7.1971 6.28697 8.1721C6.80397 9.2001 7.75397 12.4771 10.782 14.9531C12.205 16.1241 14.457 17.3241 15.413 17.6011L15.422 17.6151C16.364 17.9291 17.28 16.9451 17.769 16.0541V16.0471C17.986 15.6161 17.914 15.2081 17.597 14.9411C17.035 14.3931 16.187 13.7881 15.521 13.3991Z" fill="#8811FF"/>
<path d="M13.169 8.72869C14.13 8.78469 14.596 9.28669 14.646 10.3177C14.664 10.7207 15.249 10.6927 15.231 10.2897C15.167 8.94369 14.465 8.19369 13.201 8.12369C12.816 8.10069 12.78 8.70569 13.169 8.72869Z" fill="white"/>
<path d="M13.169 8.72869C14.13 8.78469 14.596 9.28669 14.646 10.3177C14.664 10.7207 15.249 10.6927 15.231 10.2897C15.167 8.94369 14.465 8.19369 13.201 8.12369C12.816 8.10069 12.78 8.70569 13.169 8.72869Z" fill="white"/>
<path d="M22.7752 14.5312C23.4912 8.50421 22.4312 4.69921 20.5192 2.97821L20.5202 2.97721C17.4342 0.0382082 7.0122 -0.396792 3.3202 3.10921C1.6622 4.82421 1.0782 7.34121 1.0142 10.4572C0.950197 13.5742 0.874197 19.4132 6.3152 20.9972H6.3202L6.3152 23.4162C6.3152 23.4162 6.2782 24.3962 6.9042 24.5932C7.6202 24.8252 7.9442 24.3702 10.1712 21.7102C13.8952 22.0332 16.7552 21.2932 17.0802 21.1852C17.8322 20.9332 22.0872 20.3702 22.7752 14.5312ZM10.5382 20.0082C10.5382 20.0082 8.1812 22.9472 7.4482 23.7102C7.2082 23.9582 6.9452 23.9352 6.9492 23.4432C6.9492 23.1202 6.9672 19.4272 6.9672 19.4272C2.3542 18.1052 2.6262 13.1332 2.6762 10.5322C2.7262 7.93021 3.2022 5.79921 4.6062 4.36421C7.8452 1.32721 16.9822 2.00621 19.3102 4.19421C22.1562 6.71721 21.1432 13.8452 21.1492 14.0882C20.5642 18.9622 17.1162 19.2712 16.4822 19.4822C16.2112 19.5722 13.6962 20.2192 10.5382 20.0082Z" fill="#8811FF"/>
<path d="M13.169 8.72869C14.13 8.78469 14.596 9.28669 14.646 10.3177C14.664 10.7207 15.249 10.6927 15.231 10.2897C15.167 8.94369 14.465 8.19369 13.201 8.12369C12.816 8.10069 12.78 8.70569 13.169 8.72869Z" fill="#8811FF"/>
</g>
<defs>
<clipPath id="clip0_4605_1539">
<rect width="24" height="24" fill="white" transform="translate(0 0.625)"/>
</clipPath>
</defs>
</svg>
