<svg width="24" height="25" viewBox="0 0 24 25" fill="none" xmlns="http://www.w3.org/2000/svg">
<path d="M8.5 19.625H8C4 19.625 2 18.625 2 13.625V8.625C2 4.625 4 2.625 8 2.625H16C20 2.625 22 4.625 22 8.625V13.625C22 17.625 20 19.625 16 19.625H15.5C15.19 19.625 14.89 19.775 14.7 20.025L13.2 22.025C12.54 22.905 11.46 22.905 10.8 22.025L9.3 20.025C9.14 19.805 8.77 19.625 8.5 19.625Z" stroke="#343434" stroke-width="1.5" stroke-miterlimit="10" stroke-linecap="round" stroke-linejoin="round"/>
<path d="M15.9965 11.625H16.0054" stroke="#343434" stroke-width="2" stroke-linecap="round" stroke-linejoin="round"/>
<path d="M11.9955 11.625H12.0045" stroke="#343434" stroke-width="2" stroke-linecap="round" stroke-linejoin="round"/>
<path d="M7.99451 11.625H8.00349" stroke="#343434" stroke-width="2" stroke-linecap="round" stroke-linejoin="round"/>
</svg>
