<svg width="22" height="21" viewBox="0 0 22 21" fill="none" xmlns="http://www.w3.org/2000/svg">
<path d="M0.577989 9.74187C0.628512 9.71412 0.679058 9.68776 0.728317 9.66279C1.58467 9.22711 2.4524 8.8192 3.31886 8.41127C3.3656 8.41127 3.44389 8.35161 3.48809 8.33218C3.55504 8.30027 3.62199 8.26975 3.68893 8.23783C3.81777 8.17678 3.9466 8.11712 4.07417 8.05607C4.33184 7.93536 4.58822 7.81464 4.84589 7.69393L6.38809 6.96827C7.41622 6.48542 8.44564 6.00119 9.47377 5.51834C10.5019 5.03549 11.5313 4.55125 12.5594 4.0684C13.5876 3.58556 14.617 3.10133 15.6451 2.61848C16.6732 2.13563 17.7026 1.65139 18.7308 1.16854C18.9594 1.06032 19.2069 0.899364 19.452 0.85219C19.6579 0.811952 19.8587 0.734256 20.0658 0.691244C20.4586 0.609382 20.8919 0.576085 21.2683 0.755072C21.3984 0.817509 21.5183 0.90492 21.6181 1.01453C22.0956 1.53346 22.0286 2.38537 21.9276 3.11519C21.224 8.20175 20.5205 13.2897 19.8157 18.3763C19.7197 19.0742 19.5884 19.8401 19.0869 20.2813C18.6625 20.6545 18.0588 20.6962 17.5346 20.538C17.0105 20.3784 16.5482 20.044 16.0947 19.7152C14.214 18.3471 12.3321 16.979 10.4514 15.611C10.0043 15.2863 9.50662 14.8617 9.51167 14.2721C9.5142 13.9169 9.70743 13.6005 9.90447 13.3188C11.5389 10.9768 13.897 9.36725 15.6514 7.13338C15.899 6.81842 16.0935 6.24955 15.7537 6.06779C15.5516 5.95956 15.3192 6.10664 15.1348 6.24677C12.8158 8.01583 10.4981 9.78628 8.17913 11.5553C7.42256 12.1325 6.62935 12.7264 5.71742 12.8679C4.90148 12.9956 4.0805 12.7458 3.29108 12.4905C2.62923 12.2768 1.96863 12.0576 1.31057 11.8314C0.960704 11.7121 0.599465 11.5831 0.329169 11.3125C0.0588732 11.042 -0.0964628 10.5869 0.0664725 10.2261C0.168781 9.99995 0.367086 9.85704 0.575491 9.74049L0.577989 9.74187Z" fill="#76B1FF"/>
</svg>
