<svg width="24" height="25" viewBox="0 0 24 25" fill="none" xmlns="http://www.w3.org/2000/svg">
<path d="M17.472 15.007C17.175 14.858 15.714 14.14 15.442 14.04C15.169 13.941 14.971 13.892 14.772 14.19C14.575 14.487 14.005 15.156 13.832 15.354C13.659 15.553 13.485 15.577 13.188 15.429C12.891 15.279 11.933 14.966 10.798 13.954C9.91501 13.166 9.31801 12.193 9.14501 11.895C8.97201 11.598 9.12701 11.437 9.27501 11.289C9.40901 11.156 9.57301 10.942 9.72101 10.769C9.87001 10.595 9.91901 10.471 10.019 10.272C10.118 10.074 10.069 9.90104 9.99401 9.75204C9.91901 9.60304 9.32501 8.14004 9.07801 7.54504C8.83601 6.96604 8.59101 7.04504 8.40901 7.03504C8.23601 7.02704 8.03801 7.02504 7.83901 7.02504C7.64101 7.02504 7.31901 7.09904 7.04701 7.39704C6.77501 7.69404 6.00701 8.41304 6.00701 9.87604C6.00701 11.338 7.07201 12.751 7.22001 12.95C7.36901 13.148 9.31601 16.15 12.297 17.437C13.006 17.743 13.559 17.926 13.991 18.062C14.703 18.289 15.351 18.257 15.862 18.18C16.433 18.095 17.62 17.461 17.868 16.767C18.116 16.073 18.116 15.478 18.041 15.354C17.967 15.23 17.77 15.156 17.472 15.007ZM12.05 22.41H12.046C10.2758 22.4102 8.53809 21.9342 7.01501 21.032L6.65401 20.818L2.91301 21.8L3.91101 18.152L3.67601 17.778C2.68645 16.2023 2.16295 14.3787 2.16601 12.518C2.16701 7.06804 6.60201 2.63404 12.054 2.63404C14.694 2.63404 17.176 3.66404 19.042 5.53204C19.9627 6.44866 20.6924 7.53877 21.189 8.73928C21.6856 9.9398 21.9391 11.2269 21.935 12.526C21.932 17.976 17.498 22.41 12.05 22.41ZM20.463 4.11304C19.3612 3.00396 18.0502 2.12458 16.6061 1.52584C15.162 0.927105 13.6133 0.620924 12.05 0.625041C5.49501 0.625041 0.160007 5.96004 0.157007 12.517C0.157007 14.613 0.704007 16.659 1.74501 18.462L0.0570068 24.625L6.36201 22.971C8.1056 23.921 10.0594 24.4188 12.045 24.419H12.05C18.604 24.419 23.94 19.084 23.943 12.526C23.9478 10.9633 23.6428 9.41514 23.0454 7.97107C22.4481 6.52701 21.5704 5.21571 20.463 4.11304Z" fill="#25D366"/>
</svg>
