<svg width="15" height="14" viewBox="0 0 15 14" fill="none" xmlns="http://www.w3.org/2000/svg">
<path d="M12.4422 7.03771H14.0929V7.87652C14.0929 8.6476 13.9411 9.41113 13.6462 10.1235C13.3513 10.8359 12.9191 11.4832 12.3742 12.0284C11.8293 12.5736 11.1824 13.0061 10.4705 13.3012C9.7585 13.5963 8.99544 13.7482 8.22484 13.7482H6.54824C4.99194 13.7482 3.49937 13.1296 2.39889 12.0284C1.29842 10.9273 0.680176 9.43378 0.680176 7.87652V7.03771H10.7656V3.28389C10.7656 3.11695 10.7327 2.95165 10.6688 2.79742C10.605 2.6432 10.5114 2.50307 10.3934 2.38506C10.2754 2.26704 10.1353 2.17345 9.98111 2.10962C9.82694 2.04579 9.66173 2.01298 9.49489 2.01307H9.07259C8.68811 2.01307 8.36287 2.26975 8.2595 2.62167C8.51935 2.77075 8.73523 2.98585 8.88531 3.24522C9.03539 3.50459 9.11435 3.79903 9.11419 4.09873H5.70995C5.7099 3.80014 5.78831 3.50679 5.93733 3.24809C6.08635 2.9894 6.30072 2.77445 6.55896 2.62483C6.61797 1.99851 6.90838 1.41675 7.37337 0.993343C7.83837 0.569935 8.44451 0.335342 9.07322 0.335449H9.49552C10.277 0.335449 11.0265 0.646088 11.5791 1.19903C12.1317 1.75197 12.4422 2.50192 12.4422 3.28389V7.03771Z" fill="#636363"/>
</svg>
