<svg width="12" height="10" viewBox="0 0 12 10" fill="none" xmlns="http://www.w3.org/2000/svg">
<path d="M3.941 0H8.059L8.809 1.5H11.5V9.5H0.5V1.5H3.191L3.941 0ZM3.375 5.375C3.375 6.07119 3.65156 6.73887 4.14384 7.23116C4.63613 7.72344 5.30381 8 6 8C6.69619 8 7.36387 7.72344 7.85616 7.23116C8.34844 6.73887 8.625 6.07119 8.625 5.375C8.625 4.67881 8.34844 4.01113 7.85616 3.51884C7.36387 3.02656 6.69619 2.75 6 2.75C5.30381 2.75 4.63613 3.02656 4.14384 3.51884C3.65156 4.01113 3.375 4.67881 3.375 5.375Z" fill="white"/>
</svg>
