<svg width="15" height="14" viewBox="0 0 15 14" fill="none" xmlns="http://www.w3.org/2000/svg">
<path d="M7.50016 9.97884C7.38905 9.97884 7.28488 9.96162 7.18766 9.92718C7.09044 9.89273 7.00016 9.83357 6.91683 9.74968L3.91683 6.74968C3.75016 6.58301 3.67016 6.38857 3.67683 6.16634C3.6835 5.94412 3.7635 5.74968 3.91683 5.58301C4.0835 5.41634 4.28155 5.32968 4.511 5.32301C4.74044 5.31634 4.93822 5.39607 5.10433 5.56218L6.66683 7.12468V1.16634C6.66683 0.930233 6.74683 0.732455 6.90683 0.573011C7.06683 0.413566 7.26461 0.333566 7.50016 0.333011C7.73572 0.332455 7.93377 0.412455 8.09433 0.573011C8.25489 0.733566 8.33461 0.931344 8.3335 1.16634V7.12468L9.896 5.56218C10.0627 5.39551 10.2607 5.31551 10.4902 5.32218C10.7196 5.32884 10.9174 5.41579 11.0835 5.58301C11.2363 5.74968 11.3163 5.94412 11.3235 6.16634C11.3307 6.38857 11.2507 6.58301 11.0835 6.74968L8.0835 9.74968C8.00016 9.83301 7.90988 9.89218 7.81266 9.92718C7.71544 9.96218 7.61127 9.9794 7.50016 9.97884ZM2.50016 13.6663C2.04183 13.6663 1.64961 13.5033 1.3235 13.1772C0.997385 12.8511 0.834052 12.4586 0.833496 11.9997V10.333C0.833496 10.0969 0.913496 9.89912 1.0735 9.73968C1.2335 9.58023 1.43127 9.50023 1.66683 9.49968C1.90238 9.49912 2.10044 9.57912 2.261 9.73968C2.42155 9.90023 2.50127 10.098 2.50016 10.333V11.9997H12.5002V10.333C12.5002 10.0969 12.5802 9.89912 12.7402 9.73968C12.9002 9.58023 13.0979 9.50023 13.3335 9.49968C13.5691 9.49912 13.7671 9.57912 13.9277 9.73968C14.0882 9.90023 14.1679 10.098 14.1668 10.333V11.9997C14.1668 12.458 14.0038 12.8505 13.6777 13.1772C13.3516 13.5038 12.9591 13.6669 12.5002 13.6663H2.50016Z" fill="white"/>
</svg>
