<svg width="19" height="18" viewBox="0 0 19 18" fill="none" xmlns="http://www.w3.org/2000/svg">
<path fill-rule="evenodd" clip-rule="evenodd" d="M6.1792 10C6.70963 10 7.21834 10.2107 7.59341 10.5858C7.96849 10.9609 8.1792 11.4696 8.1792 12V16C8.1792 16.5304 7.96849 17.0391 7.59341 17.4142C7.21834 17.7893 6.70963 18 6.1792 18H2.1792C1.64877 18 1.14006 17.7893 0.764986 17.4142C0.389913 17.0391 0.179199 16.5304 0.179199 16V12C0.179199 11.4696 0.389913 10.9609 0.764986 10.5858C1.14006 10.2107 1.64877 10 2.1792 10H6.1792ZM16.1792 10C16.7096 10 17.2183 10.2107 17.5934 10.5858C17.9685 10.9609 18.1792 11.4696 18.1792 12V16C18.1792 16.5304 17.9685 17.0391 17.5934 17.4142C17.2183 17.7893 16.7096 18 16.1792 18H12.1792C11.6488 18 11.1401 17.7893 10.765 17.4142C10.3899 17.0391 10.1792 16.5304 10.1792 16V12C10.1792 11.4696 10.3899 10.9609 10.765 10.5858C11.1401 10.2107 11.6488 10 12.1792 10H16.1792ZM6.1792 0C6.70963 0 7.21834 0.210714 7.59341 0.585786C7.96849 0.960859 8.1792 1.46957 8.1792 2V6C8.1792 6.53043 7.96849 7.03914 7.59341 7.41421C7.21834 7.78929 6.70963 8 6.1792 8H2.1792C1.64877 8 1.14006 7.78929 0.764986 7.41421C0.389913 7.03914 0.179199 6.53043 0.179199 6V2C0.179199 1.46957 0.389913 0.960859 0.764986 0.585786C1.14006 0.210714 1.64877 0 2.1792 0H6.1792ZM16.1792 0C16.7096 0 17.2183 0.210714 17.5934 0.585786C17.9685 0.960859 18.1792 1.46957 18.1792 2V6C18.1792 6.53043 17.9685 7.03914 17.5934 7.41421C17.2183 7.78929 16.7096 8 16.1792 8H12.1792C11.6488 8 11.1401 7.78929 10.765 7.41421C10.3899 7.03914 10.1792 6.53043 10.1792 6V2C10.1792 1.46957 10.3899 0.960859 10.765 0.585786C11.1401 0.210714 11.6488 0 12.1792 0H16.1792Z" fill="black"/>
</svg>
