<svg width="19" height="18" viewBox="0 0 19 18" fill="none" xmlns="http://www.w3.org/2000/svg">
<path d="M15.6088 13.3915C16.6715 13.3915 18.2435 12.6889 18.2435 10.7568C18.2435 8.82476 16.6715 8.12219 15.6088 8.12219H13.8524V6.36576H15.6088C17.5409 6.36576 18.2435 4.79376 18.2435 3.73112C18.2435 1.79905 16.6715 1.09648 15.6088 1.09648H13.8524V0.218262H12.9742V1.09648H5.94849V0.218262H5.07027V1.09648H0.679199V2.85291H5.07027V4.60933H3.31384C2.2512 4.60933 0.679199 5.31191 0.679199 7.24398C0.679199 9.17605 2.2512 9.87862 3.31384 9.87862H5.07027V11.6351H3.31384C2.2512 11.6351 0.679199 12.3376 0.679199 14.2697C0.679199 16.2018 2.2512 16.9043 3.31384 16.9043H5.07027V17.7826H5.94849V16.9043H12.9742V17.7826H13.8524V16.9043H18.2435V15.1479H13.8524V13.3915H15.6088ZM15.6088 9.87862C16.004 9.87862 16.4871 10.0455 16.4871 10.7568C16.4871 11.4682 16.004 11.6351 15.6088 11.6351H13.8524V9.87862H15.6088ZM12.9742 8.12219H5.94849V6.36576H12.9742V8.12219ZM15.6088 2.85291C16.004 2.85291 16.4871 3.02855 16.4871 3.73112C16.4871 4.12632 16.3202 4.60933 15.6088 4.60933H13.8524V2.85291H15.6088ZM5.94849 2.85291H12.9742V4.60933H5.94849V2.85291ZM3.31384 8.12219C2.91865 8.12219 2.43563 7.95533 2.43563 7.24398C2.43563 6.53262 2.91865 6.36576 3.31384 6.36576H5.07027V8.12219H3.31384ZM5.94849 9.87862H12.9742V11.6351H5.94849V9.87862ZM3.31384 15.1479C2.91865 15.1479 2.43563 14.981 2.43563 14.2697C2.43563 13.5583 2.91865 13.3915 3.31384 13.3915H5.07027V15.1479H3.31384ZM12.9742 15.1479H5.94849V13.3915H12.9742V15.1479Z" fill="#636363"/>
</svg>
