<svg width="23" height="18" viewBox="0 0 23 18" fill="none" xmlns="http://www.w3.org/2000/svg">
<path d="M1.89795 0.0625C1.32646 0.0625 0.866699 0.522266 0.866699 1.09375V3.15625C0.866699 3.72773 1.32646 4.1875 1.89795 4.1875H3.96045C4.53193 4.1875 4.9917 3.72773 4.9917 3.15625V1.09375C4.9917 0.522266 4.53193 0.0625 3.96045 0.0625H1.89795ZM8.4292 0.75C7.66865 0.75 7.0542 1.36445 7.0542 2.125C7.0542 2.88555 7.66865 3.5 8.4292 3.5H20.8042C21.5647 3.5 22.1792 2.88555 22.1792 2.125C22.1792 1.36445 21.5647 0.75 20.8042 0.75H8.4292ZM8.4292 7.625C7.66865 7.625 7.0542 8.23945 7.0542 9C7.0542 9.76055 7.66865 10.375 8.4292 10.375H20.8042C21.5647 10.375 22.1792 9.76055 22.1792 9C22.1792 8.23945 21.5647 7.625 20.8042 7.625H8.4292ZM8.4292 14.5C7.66865 14.5 7.0542 15.1145 7.0542 15.875C7.0542 16.6355 7.66865 17.25 8.4292 17.25H20.8042C21.5647 17.25 22.1792 16.6355 22.1792 15.875C22.1792 15.1145 21.5647 14.5 20.8042 14.5H8.4292ZM0.866699 7.96875V10.0312C0.866699 10.6027 1.32646 11.0625 1.89795 11.0625H3.96045C4.53193 11.0625 4.9917 10.6027 4.9917 10.0312V7.96875C4.9917 7.39727 4.53193 6.9375 3.96045 6.9375H1.89795C1.32646 6.9375 0.866699 7.39727 0.866699 7.96875ZM1.89795 13.8125C1.32646 13.8125 0.866699 14.2723 0.866699 14.8438V16.9062C0.866699 17.4777 1.32646 17.9375 1.89795 17.9375H3.96045C4.53193 17.9375 4.9917 17.4777 4.9917 16.9062V14.8438C4.9917 14.2723 4.53193 13.8125 3.96045 13.8125H1.89795Z" fill="black"/>
</svg>
