<svg width="16" height="17" viewBox="0 0 16 17" fill="none" xmlns="http://www.w3.org/2000/svg">
<path d="M13.6658 8.4044H15.5454V9.35953C15.5454 10.2375 15.3726 11.1069 15.0368 11.9181C14.701 12.7293 14.2088 13.4663 13.5884 14.0872C12.9679 14.708 12.2313 15.2005 11.4206 15.5365C10.61 15.8725 9.74108 16.0454 8.86362 16.0454H6.95452C5.18239 16.0454 3.48285 15.341 2.22976 14.0872C0.97668 12.8333 0.272705 11.1327 0.272705 9.35953V8.4044H11.7567V4.13002C11.7567 3.93993 11.7192 3.7517 11.6465 3.57609C11.5738 3.40048 11.4672 3.24092 11.3328 3.10654C11.1985 2.97216 11.039 2.86559 10.8634 2.79291C10.6879 2.72023 10.4998 2.68287 10.3098 2.68296H9.82893C9.39113 2.68296 9.02079 2.97525 8.90309 3.37597C9.19896 3.54572 9.44478 3.79065 9.61568 4.08599C9.78657 4.38133 9.87648 4.71659 9.87629 5.05786H5.99998C5.99992 4.71786 6.08921 4.38382 6.25889 4.08925C6.42857 3.79468 6.67268 3.54994 6.96672 3.37956C7.03392 2.66639 7.3646 2.00395 7.89408 1.52183C8.42356 1.03971 9.11375 0.772583 9.82964 0.772705H10.3105C11.2004 0.772705 12.0538 1.12642 12.683 1.75604C13.3123 2.38566 13.6658 3.2396 13.6658 4.13002V8.4044Z" fill="#636363"/>
</svg>
