<svg width="21" height="22" viewBox="0 0 21 22" fill="none" xmlns="http://www.w3.org/2000/svg">
<path d="M10.5 0.538574C4.701 0.538574 0 5.23957 0 11.0386C0 15.9631 3.39 20.0948 7.9635 21.2296V14.2471H5.79825V11.0386H7.9635V9.65632C7.9635 6.08257 9.5805 4.42582 13.0897 4.42582C13.755 4.42582 14.9025 4.55632 15.372 4.68682V7.59532C15.1245 7.56907 14.694 7.55632 14.1593 7.55632C12.4373 7.55632 11.772 8.20882 11.772 9.90382V11.0386H15.2017L14.6122 14.2471H11.772V21.4613C16.971 20.8336 21 16.4063 21 11.0386C21 5.23957 16.299 0.538574 10.5 0.538574Z" fill="black"/>
</svg>
