<svg width="21" height="22" viewBox="0 0 21 22" fill="none" xmlns="http://www.w3.org/2000/svg">
<path d="M6.15122 0.573379C5.03372 0.625879 4.27097 0.804379 3.60422 1.06613C2.91422 1.33538 2.32922 1.69613 1.74647 2.28038C1.16447 2.86463 0.805971 3.45038 0.538971 4.14113C0.280221 4.80938 0.105471 5.57288 0.0559709 6.69113C0.00647087 7.80863 -0.00402909 8.16863 0.00122091 11.0194C0.00647091 13.8701 0.0192209 14.2279 0.0732209 15.3484C0.126471 16.4651 0.304221 17.2279 0.565971 17.8954C0.835221 18.5854 1.19597 19.1704 1.78022 19.7531C2.36447 20.3351 2.94947 20.6929 3.64247 20.9606C4.30997 21.2186 5.07422 21.3949 6.19172 21.4436C7.30922 21.4924 7.66922 21.5036 10.52 21.4984C13.3707 21.4931 13.7292 21.4804 14.8497 21.4271C15.9702 21.3739 16.7285 21.1954 17.396 20.9344C18.086 20.6644 18.6717 20.3044 19.2537 19.7194C19.8357 19.1344 20.1942 18.5486 20.4605 17.8571C20.7192 17.1896 20.8947 16.4254 20.9435 15.3086C20.9922 14.1881 21.0042 13.8304 20.9982 10.9789C20.9922 8.12738 20.9802 7.77038 20.927 6.65063C20.8737 5.53088 20.696 4.77038 20.4342 4.10288C20.1642 3.41288 19.8042 2.82788 19.22 2.24513C18.6357 1.66238 18.0492 1.30463 17.3577 1.03838C16.6895 0.779629 15.926 0.603379 14.8085 0.555379C13.691 0.507379 13.331 0.494629 10.4795 0.499879C7.62797 0.505129 7.27097 0.517879 6.15122 0.571879M6.27422 19.5536C5.25047 19.5094 4.69472 19.3391 4.32422 19.1966C3.83372 19.0076 3.48422 18.7789 3.11522 18.4136C2.74622 18.0484 2.51897 17.6974 2.32772 17.2076C2.18372 16.8371 2.01047 16.2821 1.96247 15.2584C1.91072 14.1521 1.89947 13.8199 1.89347 11.0164C1.88747 8.21288 1.89797 7.88138 1.94672 6.77438C1.99022 5.75138 2.16122 5.19488 2.30372 4.82438C2.49272 4.33313 2.72072 3.98438 3.08672 3.61538C3.45272 3.24638 3.80297 3.01913 4.29272 2.82788C4.66247 2.68313 5.21822 2.51138 6.24122 2.46263C7.34822 2.41013 7.68047 2.39963 10.4832 2.39363C13.286 2.38763 13.619 2.39813 14.7267 2.44688C15.7497 2.49113 16.3062 2.66063 16.676 2.80388C17.1665 2.99288 17.516 3.22013 17.885 3.58688C18.254 3.95363 18.4812 4.30238 18.6732 4.79363C18.818 5.16263 18.9897 5.71763 19.0377 6.74138C19.0902 7.84838 19.1022 8.18063 19.1075 10.9834C19.1127 13.7861 19.103 14.1191 19.0542 15.2254C19.0092 16.2491 18.8397 16.8049 18.6972 17.1761C18.5082 17.6666 18.2802 18.0161 17.9135 18.3851C17.5467 18.7541 17.1972 18.9814 16.7075 19.1726C16.3377 19.3166 15.782 19.4891 14.7597 19.5379C13.6527 19.5896 13.3205 19.6009 10.517 19.6069C7.71347 19.6129 7.38122 19.6016 6.27422 19.5536ZM14.834 5.38763C14.8355 6.08363 15.4002 6.64688 16.0962 6.64538C16.7922 6.64388 17.3555 6.07913 17.354 5.38313C17.3525 4.68713 16.7877 4.12388 16.0917 4.12538C15.3957 4.12688 14.8332 4.69163 14.834 5.38763ZM5.10872 11.0096C5.11472 13.9871 7.53272 16.3961 10.5102 16.3901C13.4877 16.3841 15.8975 13.9661 15.8922 10.9886C15.8862 8.01113 13.4675 5.60138 10.49 5.60738C7.51247 5.61338 5.10272 8.03213 5.10872 11.0096ZM7.00097 11.0059C6.99722 9.07313 8.56097 7.50263 10.4945 7.49888C12.4272 7.49513 13.9977 9.05888 14.0015 10.9924C14.0052 12.9251 12.4415 14.4956 10.508 14.4994C8.57522 14.5031 7.00472 12.9401 7.00097 11.0074" fill="black"/>
</svg>
