<svg width="21" height="20" viewBox="0 0 21 20" fill="none" xmlns="http://www.w3.org/2000/svg">
<path fill-rule="evenodd" clip-rule="evenodd" d="M18.0833 0.25H2.91675C1.7205 0.25 0.75 1.21975 0.75 2.41675V17.5833C0.75 18.7795 1.71975 19.75 2.91675 19.75H18.0833C19.2795 19.75 20.25 18.7803 20.25 17.5833V2.41675C20.25 1.2205 19.2803 0.25 18.0833 0.25ZM6.64575 17.0417H3.738V7.6525H6.64575V17.0417ZM5.178 6.42325C4.22775 6.42325 3.45825 5.64775 3.45825 4.69075C3.45825 3.73375 4.22775 2.95825 5.178 2.95825C6.12825 2.95825 6.897 3.73375 6.897 4.69075C6.897 5.64775 6.1275 6.42325 5.178 6.42325ZM17.5417 17.0417H14.6483V12.1135C14.6483 10.762 14.1345 10.0068 13.065 10.0068C11.9017 10.0068 11.2935 10.7928 11.2935 12.1135V17.0417H8.505V7.6525H11.2935V8.917C11.2935 8.917 12.132 7.36525 14.1248 7.36525C16.1175 7.36525 17.5417 8.581 17.5417 11.0965V17.0417Z" fill="black"/>
</svg>
