<svg width="25" height="24" viewBox="0 0 25 24" fill="none" xmlns="http://www.w3.org/2000/svg">
<path d="M9.48145 19H8.98145C4.98145 19 2.98145 18 2.98145 13V8C2.98145 4 4.98145 2 8.98145 2H16.9814C20.9814 2 22.9814 4 22.9814 8V13C22.9814 17 20.9814 19 16.9814 19H16.4814C16.1714 19 15.8714 19.15 15.6814 19.4L14.1814 21.4C13.5214 22.28 12.4414 22.28 11.7814 21.4L10.2814 19.4C10.1214 19.18 9.75145 19 9.48145 19Z" stroke="#636363" stroke-width="1.5" stroke-miterlimit="10" stroke-linecap="round" stroke-linejoin="round"/>
<path d="M7.98145 8H17.9814" stroke="#636363" stroke-width="1.5" stroke-linecap="round" stroke-linejoin="round"/>
<path d="M7.98145 13H13.9814" stroke="#636363" stroke-width="1.5" stroke-linecap="round" stroke-linejoin="round"/>
</svg>
