<svg width="16" height="16" viewBox="0 0 16 16" fill="none" xmlns="http://www.w3.org/2000/svg">
<path d="M8.00004 8.66732C8.36823 8.66732 8.66671 8.36884 8.66671 8.00065C8.66671 7.63246 8.36823 7.33398 8.00004 7.33398C7.63185 7.33398 7.33337 7.63246 7.33337 8.00065C7.33337 8.36884 7.63185 8.66732 8.00004 8.66732Z" stroke="black" stroke-width="2" stroke-linecap="round" stroke-linejoin="round"/>
<path d="M8.00004 3.99935C8.36823 3.99935 8.66671 3.70087 8.66671 3.33268C8.66671 2.96449 8.36823 2.66602 8.00004 2.66602C7.63185 2.66602 7.33337 2.96449 7.33337 3.33268C7.33337 3.70087 7.63185 3.99935 8.00004 3.99935Z" stroke="black" stroke-width="2" stroke-linecap="round" stroke-linejoin="round"/>
<path d="M8.00004 13.3333C8.36823 13.3333 8.66671 13.0349 8.66671 12.6667C8.66671 12.2985 8.36823 12 8.00004 12C7.63185 12 7.33337 12.2985 7.33337 12.6667C7.33337 13.0349 7.63185 13.3333 8.00004 13.3333Z" stroke="black" stroke-width="2" stroke-linecap="round" stroke-linejoin="round"/>
</svg>
