<svg width="18" height="18" viewBox="0 0 18 18" fill="none" xmlns="http://www.w3.org/2000/svg">
<path d="M8.60469 2.28857H3.0773C2.65846 2.28857 2.25677 2.45496 1.9606 2.75113C1.66443 3.04729 1.49805 3.44898 1.49805 3.86783V14.9226C1.49805 15.3414 1.66443 15.7431 1.9606 16.0393C2.25677 16.3355 2.65846 16.5019 3.0773 16.5019H14.1321C14.5509 16.5019 14.9526 16.3355 15.2488 16.0393C15.5449 15.7431 15.7113 15.3414 15.7113 14.9226V9.39521" stroke="#343434" stroke-width="1.57925" stroke-linecap="round" stroke-linejoin="round"/>
<path d="M13.6389 1.99232C13.953 1.67819 14.3791 1.50171 14.8233 1.50171C15.2676 1.50171 15.6936 1.67819 16.0078 1.99232C16.3219 2.30645 16.4984 2.73251 16.4984 3.17676C16.4984 3.62101 16.3219 4.04707 16.0078 4.3612L8.89087 11.4789C8.70337 11.6662 8.47174 11.8034 8.21732 11.8777L5.94872 12.5409C5.88077 12.5608 5.80875 12.5619 5.74019 12.5444C5.67162 12.5268 5.60904 12.4911 5.559 12.4411C5.50895 12.391 5.47328 12.3285 5.45571 12.2599C5.43815 12.1913 5.43933 12.1193 5.45915 12.0514L6.12244 9.78278C6.19708 9.52856 6.33448 9.2972 6.52199 9.11001L13.6389 1.99232Z" stroke="#343434" stroke-width="1.57925" stroke-linecap="round" stroke-linejoin="round"/>
</svg>
