<svg width="25" height="18" viewBox="0 0 25 18" fill="none" xmlns="http://www.w3.org/2000/svg">
<path d="M23.9982 3.18592C23.7222 2.14642 22.9093 1.32817 21.8765 1.04992C20.0045 0.545166 12.5 0.545166 12.5 0.545166C12.5 0.545166 4.99475 0.545166 3.1235 1.04992C2.09075 1.32742 1.27775 2.14642 1.00175 3.18592C0.5 5.06992 0.5 8.99992 0.5 8.99992C0.5 8.99992 0.5 12.9307 1.00175 14.8139C1.27775 15.8534 2.09075 16.6717 3.1235 16.9492C4.9955 17.4539 12.5 17.4539 12.5 17.4539C12.5 17.4539 20.0053 17.4539 21.8765 16.9492C22.9093 16.6717 23.7222 15.8527 23.9982 14.8139C24.5 12.9299 24.5 8.99992 24.5 8.99992C24.5 8.99992 24.5 5.06992 23.9982 3.18592ZM10.0452 12.5684V5.43142L16.3182 8.99992L10.0452 12.5684Z" fill="black"/>
</svg>
