<svg width="16" height="19" viewBox="0 0 16 19" fill="none" xmlns="http://www.w3.org/2000/svg">
<path d="M2 0.125C1.46957 0.125 0.960859 0.317848 0.585786 0.661121C0.210714 1.00439 0 1.46997 0 1.95543V16.5989C0 17.0843 0.210714 17.5499 0.585786 17.8932C0.960859 18.2365 1.46957 18.4293 2 18.4293H14C14.5304 18.4293 15.0391 18.2365 15.4142 17.8932C15.7893 17.5499 16 17.0843 16 16.5989V5.61629L10 0.125H2ZM2 1.95543H9V6.53151H14V16.5989H2V1.95543ZM4 9.27716V11.1076H12V9.27716H4ZM4 12.938V14.7685H9V12.938H4Z" fill="#15171C"/>
</svg>
