<svg width="24" height="16" viewBox="0 0 24 16" fill="none" xmlns="http://www.w3.org/2000/svg">
<path d="M17 8.74866L12 13.3247L7 8.74866H10V5.0878H14V8.74866H17ZM19.35 6.03047C18.67 2.88213 15.64 0.511719 12 0.511719C9.11 0.511719 6.6 2.01267 5.35 4.20004C2.34 4.50206 0 6.82671 0 9.66388C0 11.1203 0.632141 12.517 1.75736 13.5468C2.88258 14.5766 4.4087 15.1552 6 15.1552H19C19.6566 15.1552 20.3068 15.0368 20.9134 14.8068C21.52 14.5769 22.0712 14.2398 22.5355 13.8149C22.9998 13.3899 23.3681 12.8855 23.6194 12.3303C23.8707 11.7751 24 11.18 24 10.5791C24 8.16292 21.95 6.20436 19.35 6.03047Z" fill="white"/>
</svg>
