<svg width="66" height="66" viewBox="0 0 66 66" fill="none" xmlns="http://www.w3.org/2000/svg">
<rect x="5" y="5" width="56" height="56" rx="28" fill="#F4EBFF"/>
<rect x="5" y="5" width="56" height="56" rx="28" stroke="#F9F5FF" stroke-width="10"/>
<path d="M42.4367 23.5633C42.6923 23.3077 42.6933 22.892 42.426 22.6486C40.1328 20.5603 37.2053 19.2882 34.101 19.0434C30.7787 18.7813 27.472 19.7129 24.7751 21.6708C22.0783 23.6286 20.1684 26.4843 19.3886 29.7243C18.6089 32.9644 19.0105 36.3763 20.5213 39.3468C22.0321 42.3172 24.5529 44.6513 27.6306 45.9294C30.7084 47.2075 34.1411 47.3459 37.3117 46.3195C40.4822 45.2932 43.1827 43.1695 44.9276 40.3302C46.558 37.6772 47.2542 34.5621 46.9171 31.4789C46.8778 31.1195 46.5413 30.8755 46.1842 30.9315C45.8271 30.9876 45.5848 31.3225 45.6223 31.682C45.9122 34.457 45.2796 37.2574 43.8123 39.6448C42.2306 42.2186 39.7826 44.1437 36.9085 45.0741C34.0344 46.0045 30.9226 45.8791 28.1327 44.7205C25.3427 43.5619 23.0576 41.446 21.6881 38.7533C20.3186 36.0606 19.9545 32.9677 20.6613 30.0306C21.3682 27.0935 23.0995 24.5049 25.5442 22.7301C27.9888 20.9553 30.9864 20.1108 33.998 20.3484C36.7916 20.5687 39.4273 21.7068 41.4993 23.5754C41.7677 23.8175 42.1811 23.8189 42.4367 23.5633Z" fill="#31AE2F"/>
<path d="M47.0013 24.0176L33.3148 37.7748L27.0938 31.5215" stroke="#31AE2F" stroke-width="2.42775" stroke-linecap="round" stroke-linejoin="round"/>
</svg>
