<svg width="29" height="28" viewBox="0 0 29 28" fill="none" xmlns="http://www.w3.org/2000/svg">
<rect x="0.794922" width="28" height="28" rx="3.5" fill="#F0F0F0"/>
<path d="M14.8298 17.0629C15.2165 17.0585 15.5892 17.2156 15.866 17.4996C16.1427 17.7836 16.3008 18.1713 16.3054 18.5774C16.31 18.9835 16.1608 19.3747 15.8906 19.665C15.6204 19.9552 15.2513 20.1208 14.8646 20.1252C14.4778 20.1296 14.1051 19.9724 13.8283 19.6884C13.5516 19.4044 13.3935 19.0167 13.3889 18.6106C13.3843 18.2045 13.5335 17.8133 13.8037 17.523C14.0739 17.2328 14.443 17.0672 14.8298 17.0629ZM14.7776 12.4694C15.1643 12.465 15.537 12.6221 15.8138 12.9061C16.0905 13.1902 16.2486 13.5779 16.2532 13.984C16.2578 14.3901 16.1086 14.7813 15.8384 15.0715C15.5682 15.3618 15.1991 15.5273 14.8124 15.5317C14.4256 15.5361 14.0529 15.379 13.7761 15.095C13.4994 14.8109 13.3413 14.4232 13.3367 14.0171C13.3321 13.611 13.4813 13.2198 13.7515 12.9296C14.0217 12.6393 14.3908 12.4738 14.7776 12.4694ZM14.7254 7.87595C15.1121 7.87155 15.4848 8.02865 15.7616 8.31269C16.0383 8.59673 16.1964 8.98444 16.201 9.39053C16.2056 9.79661 16.0564 10.1878 15.7862 10.4781C15.516 10.7683 15.1469 10.9339 14.7602 10.9382C14.3734 10.9426 14.0007 10.7855 13.7239 10.5015C13.4472 10.2175 13.2891 9.82975 13.2845 9.42367C13.2799 9.01758 13.4291 8.62638 13.6993 8.33613C13.9695 8.04587 14.3386 7.88034 14.7254 7.87595Z" fill="black"/>
</svg>
