<svg width="52" height="34" viewBox="0 0 52 34" fill="none" xmlns="http://www.w3.org/2000/svg">
<path d="M41.6045 12.839C40.1608 5.51439 33.7279 0.015625 25.9999 0.015625C19.8642 0.015625 14.5353 3.49747 11.8814 8.59286C5.49095 9.27224 0.522949 14.6861 0.522949 21.2464C0.522949 28.2738 6.23403 33.9849 13.2614 33.9849H40.8614C46.7211 33.9849 51.4768 29.2292 51.4768 23.3695C51.4768 17.7645 47.1245 13.2212 41.6045 12.839ZM40.8614 29.7387H13.2614C8.56941 29.7387 4.7691 25.9384 4.7691 21.2464C4.7691 16.8941 8.01741 13.2636 12.3273 12.8178L14.5989 12.5842L15.6605 10.5673C17.6774 6.68209 21.6263 4.26178 25.9999 4.26178C31.5623 4.26178 36.3605 8.2107 37.4433 13.667L38.0802 16.8516L41.3285 17.0852C44.6405 17.2975 47.2306 20.0787 47.2306 23.3695C47.2306 26.8725 44.3645 29.7387 40.8614 29.7387ZM17.5076 19.1233H22.9214V25.4925H29.0783V19.1233H34.4922L25.9999 10.631L17.5076 19.1233Z" fill="#ED8F03"/>
</svg>
