<svg width="20" height="21" viewBox="0 0 20 21" fill="none" xmlns="http://www.w3.org/2000/svg">
<path d="M14.36 12.4072C14.44 11.7472 14.5 11.0872 14.5 10.4072C14.5 9.72723 14.44 9.06723 14.36 8.40723H17.74C17.9 9.04723 18 9.71723 18 10.4072C18 11.0972 17.9 11.7672 17.74 12.4072M12.59 17.9672C13.19 16.8572 13.65 15.6572 13.97 14.4072H16.92C15.9512 16.0755 14.4141 17.3392 12.59 17.9672ZM12.34 12.4072H7.66C7.56 11.7472 7.5 11.0872 7.5 10.4072C7.5 9.72723 7.56 9.05723 7.66 8.40723H12.34C12.43 9.05723 12.5 9.72723 12.5 10.4072C12.5 11.0872 12.43 11.7472 12.34 12.4072ZM10 18.3672C9.17 17.1672 8.5 15.8372 8.09 14.4072H11.91C11.5 15.8372 10.83 17.1672 10 18.3672ZM6 6.40723H3.08C4.03864 4.73426 5.57466 3.46847 7.4 2.84723C6.8 3.95723 6.35 5.15723 6 6.40723ZM3.08 14.4072H6C6.35 15.6572 6.8 16.8572 7.4 17.9672C5.57827 17.3395 4.04429 16.0754 3.08 14.4072ZM2.26 12.4072C2.1 11.7672 2 11.0972 2 10.4072C2 9.71723 2.1 9.04723 2.26 8.40723H5.64C5.56 9.06723 5.5 9.72723 5.5 10.4072C5.5 11.0872 5.56 11.7472 5.64 12.4072M10 2.43723C10.83 3.63723 11.5 4.97723 11.91 6.40723H8.09C8.5 4.97723 9.17 3.63723 10 2.43723ZM16.92 6.40723H13.97C13.6565 5.16884 13.1931 3.97333 12.59 2.84723C14.43 3.47723 15.96 4.74723 16.92 6.40723ZM10 0.407227C4.47 0.407227 0 4.90723 0 10.4072C0 13.0594 1.05357 15.6029 2.92893 17.4783C3.85752 18.4069 4.95991 19.1435 6.17317 19.646C7.38642 20.1486 8.68678 20.4072 10 20.4072C12.6522 20.4072 15.1957 19.3537 17.0711 17.4783C18.9464 15.6029 20 13.0594 20 10.4072C20 9.09401 19.7413 7.79365 19.2388 6.58039C18.7362 5.36714 17.9997 4.26474 17.0711 3.33616C16.1425 2.40757 15.0401 1.67098 13.8268 1.16843C12.6136 0.665884 11.3132 0.407227 10 0.407227Z" fill="#343434"/>
</svg>
