<svg width="40" height="40" viewBox="0 0 40 40" fill="none" xmlns="http://www.w3.org/2000/svg">
<circle cx="20" cy="20" r="20" fill="#343434" fill-opacity="0.08"/>
<path d="M19.0762 22.5711C19.9976 21.9577 20.6971 21.064 21.0714 20.0223C21.4456 18.9805 21.4747 17.846 21.1542 16.7864C20.8338 15.7269 20.1809 14.7986 19.2921 14.1388C18.4032 13.479 17.3257 13.1228 16.2187 13.1228C15.1118 13.1228 14.0343 13.479 13.1454 14.1388C12.2566 14.7986 11.6037 15.7269 11.2833 16.7864C10.9628 17.846 10.9919 18.9805 11.3661 20.0223C11.7403 21.064 12.4399 21.9577 13.3613 22.5711C11.6946 23.1855 10.2711 24.3222 9.30336 25.8118C9.25249 25.8874 9.21717 25.9724 9.19942 26.0618C9.18168 26.1511 9.18188 26.2431 9.20001 26.3324C9.21814 26.4217 9.25383 26.5065 9.30502 26.5819C9.35621 26.6573 9.42187 26.7217 9.49818 26.7715C9.57449 26.8212 9.65994 26.8554 9.74955 26.8718C9.83916 26.8883 9.93115 26.8868 10.0202 26.8674C10.1092 26.848 10.1935 26.8111 10.2681 26.7588C10.3427 26.7065 10.4062 26.64 10.4549 26.5629C11.0792 25.6028 11.9334 24.8139 12.9399 24.2677C13.9465 23.7215 15.0735 23.4355 16.2187 23.4355C17.3639 23.4355 18.491 23.7215 19.4976 24.2677C20.5041 24.8139 21.3583 25.6028 21.9826 26.5629C22.0834 26.7128 22.2392 26.817 22.4162 26.8529C22.5932 26.8889 22.7773 26.8537 22.9286 26.755C23.0799 26.6563 23.1862 26.5021 23.2247 26.3256C23.2632 26.1491 23.2306 25.9645 23.1341 25.8118C22.1664 24.3222 20.7429 23.1855 19.0762 22.5711ZM12.4375 18.2811C12.4375 17.5333 12.6593 16.8022 13.0748 16.1804C13.4902 15.5586 14.0808 15.0739 14.7717 14.7877C15.4627 14.5015 16.2229 14.4267 16.9564 14.5726C17.6899 14.7185 18.3637 15.0786 18.8925 15.6074C19.4213 16.1362 19.7814 16.81 19.9273 17.5435C20.0732 18.2769 19.9984 19.0372 19.7122 19.7282C19.426 20.4191 18.9413 21.0096 18.3195 21.4251C17.6977 21.8406 16.9666 22.0624 16.2187 22.0624C15.2162 22.0613 14.2551 21.6625 13.5463 20.9536C12.8374 20.2448 12.4386 19.2836 12.4375 18.2811ZM30.4964 26.7632C30.3437 26.8628 30.1577 26.8976 29.9793 26.8601C29.8009 26.8225 29.6447 26.7156 29.5451 26.5629C28.9216 25.6023 28.0675 24.813 27.0607 24.267C26.054 23.7211 24.9265 23.4359 23.7812 23.4374C23.5989 23.4374 23.424 23.365 23.2951 23.236C23.1662 23.1071 23.0937 22.9322 23.0937 22.7499C23.0937 22.5676 23.1662 22.3927 23.2951 22.2638C23.424 22.1348 23.5989 22.0624 23.7812 22.0624C24.3381 22.0619 24.888 21.9384 25.3915 21.7007C25.8951 21.463 26.34 21.1171 26.6944 20.6875C27.0488 20.258 27.3039 19.7555 27.4416 19.216C27.5792 18.6764 27.596 18.1131 27.4907 17.5663C27.3855 17.0195 27.1607 16.5027 26.8326 16.0528C26.5044 15.6029 26.0809 15.2311 25.5924 14.9638C25.1039 14.6966 24.5623 14.5405 24.0065 14.5068C23.4507 14.4731 22.8943 14.5626 22.377 14.7689C22.2927 14.8053 22.2019 14.8245 22.11 14.8253C22.0182 14.8261 21.9271 14.8084 21.8421 14.7734C21.7572 14.7384 21.6801 14.6867 21.6155 14.6214C21.5509 14.5561 21.5 14.4785 21.4659 14.3932C21.4318 14.3078 21.4151 14.2166 21.4169 14.1247C21.4186 14.0328 21.4388 13.9423 21.4761 13.8583C21.5135 13.7744 21.5672 13.6988 21.6343 13.636C21.7014 13.5732 21.7803 13.5245 21.8666 13.4927C23.0503 13.0206 24.367 13.0036 25.5625 13.445C26.758 13.8864 27.7478 14.7549 28.3407 15.883C28.9337 17.0111 29.0879 18.3188 28.7736 19.5538C28.4593 20.7889 27.6987 21.8638 26.6387 22.5711C28.3054 23.1855 29.7289 24.3222 30.6966 25.8118C30.7962 25.9646 30.8311 26.1506 30.7935 26.329C30.756 26.5074 30.6491 26.6636 30.4964 26.7632Z" fill="black"/>
</svg>
