<svg width="12" height="15" viewBox="0 0 12 15" fill="none" xmlns="http://www.w3.org/2000/svg">
<path d="M0.760615 1.0764L0.760615 13.6768C0.761015 13.8043 0.7962 13.9294 0.862383 14.0384C0.928565 14.1475 1.02324 14.2365 1.13621 14.2957C1.24919 14.355 1.37618 14.3823 1.50353 14.3747C1.63088 14.3672 1.75376 14.3251 1.85895 14.2529L10.9592 7.95269C11.3365 7.69159 11.3365 7.06297 10.9592 6.80116L1.85895 0.500982C1.75398 0.428057 1.63104 0.385292 1.50348 0.377334C1.37592 0.369375 1.24861 0.396527 1.1354 0.45584C1.02219 0.515153 0.927392 0.604358 0.861317 0.713763C0.795242 0.823168 0.760414 0.948588 0.760615 1.0764Z" fill="black"/>
</svg>
