<svg width="21" height="21" viewBox="0 0 21 21" fill="none" xmlns="http://www.w3.org/2000/svg">
<path d="M18.3705 6.19336H13.3705" stroke="white" stroke-width="1.25" stroke-miterlimit="10" stroke-linecap="round" stroke-linejoin="round"/>
<path d="M5.03707 6.19336H1.70374" stroke="white" stroke-width="1.25" stroke-miterlimit="10" stroke-linecap="round" stroke-linejoin="round"/>
<path d="M8.3704 9.11068C9.98123 9.11068 11.2871 7.80484 11.2871 6.19401C11.2871 4.58318 9.98123 3.27734 8.3704 3.27734C6.75957 3.27734 5.45374 4.58318 5.45374 6.19401C5.45374 7.80484 6.75957 9.11068 8.3704 9.11068Z" stroke="white" stroke-width="1.25" stroke-miterlimit="10" stroke-linecap="round" stroke-linejoin="round"/>
<path d="M18.3704 15.3613H15.0371" stroke="white" stroke-width="1.25" stroke-miterlimit="10" stroke-linecap="round" stroke-linejoin="round"/>
<path d="M6.70374 15.3613H1.70374" stroke="white" stroke-width="1.25" stroke-miterlimit="10" stroke-linecap="round" stroke-linejoin="round"/>
<path d="M11.7038 18.2767C13.3146 18.2767 14.6204 16.9709 14.6204 15.36C14.6204 13.7492 13.3146 12.4434 11.7038 12.4434C10.0929 12.4434 8.78711 13.7492 8.78711 15.36C8.78711 16.9709 10.0929 18.2767 11.7038 18.2767Z" stroke="white" stroke-width="1.25" stroke-miterlimit="10" stroke-linecap="round" stroke-linejoin="round"/>
</svg>
