<svg width="15" height="15" viewBox="0 0 15 15" fill="none" xmlns="http://www.w3.org/2000/svg">
<path d="M7.80542 14.25C9.06931 14.25 10.2441 13.934 11.3297 13.3021C12.3992 12.6863 13.2418 11.8438 13.8575 10.7743C14.4894 9.68866 14.8054 8.51389 14.8054 7.25C14.8054 6.78009 14.7568 6.31018 14.6596 5.84028L14.6353 5.69444H7.80542V8.02778H12.4721C12.3425 8.75694 12.0548 9.41724 11.6092 10.0087C11.1636 10.6001 10.6087 11.066 9.94431 11.4062C9.27996 11.7465 8.56699 11.9167 7.80542 11.9167C6.96283 11.9167 6.18505 11.706 5.47209 11.2847C4.75912 10.8634 4.19199 10.2963 3.7707 9.58333C3.3494 8.87037 3.13875 8.09259 3.13875 7.25C3.13875 6.40741 3.3494 5.62963 3.7707 4.91667C4.19199 4.2037 4.75912 3.63657 5.47209 3.21528C6.18505 2.79398 6.96283 2.58333 7.80542 2.58333C8.37255 2.58333 8.91942 2.68461 9.44604 2.88715C9.97267 3.0897 10.4385 3.36921 10.8436 3.72569L12.5207 2.07292C11.8888 1.50579 11.1677 1.06019 10.3575 0.736111C9.54732 0.412037 8.69662 0.25 7.80542 0.25C6.54153 0.25 5.36676 0.565972 4.28111 1.19792C3.21167 1.81366 2.36908 2.65625 1.75334 3.72569C1.12139 4.81134 0.80542 5.98611 0.80542 7.25C0.80542 8.51389 1.12139 9.68866 1.75334 10.7743C2.36908 11.8438 3.21167 12.6863 4.28111 13.3021C5.36676 13.934 6.54153 14.25 7.80542 14.25Z" fill="black"/>
</svg>
