<svg width="17" height="17" viewBox="0 0 17 17" fill="none" xmlns="http://www.w3.org/2000/svg">
<path fill-rule="evenodd" clip-rule="evenodd" d="M3.5415 4.87499C3.08317 4.87499 2.68734 4.70833 2.354 4.37499C2.02067 4.04166 1.854 3.64583 1.854 3.1875C1.854 2.72916 2.02067 2.33333 2.354 2C2.68734 1.66667 3.08317 1.5 3.5415 1.5C3.99983 1.5 4.39566 1.66667 4.729 2C5.06233 2.33333 5.229 2.72916 5.229 3.1875C5.229 3.64583 5.06233 4.04166 4.729 4.37499C4.39566 4.70833 3.99983 4.87499 3.5415 4.87499ZM4.979 15.5H2.07275V6.15624H4.979V15.5ZM12.9477 15.5H15.854V10.375C15.854 8.93748 15.6456 7.87498 15.229 7.18749C14.6873 6.33332 13.7394 5.90624 12.3852 5.90624C11.7186 5.90624 11.1352 6.07291 10.6352 6.40624C10.1769 6.67707 9.84357 7.02082 9.63524 7.43749H9.60399V6.15624H6.82274V15.5H9.69773V10.875C9.69773 10.1458 9.8019 9.59373 10.0102 9.21873C10.2811 8.71873 10.7498 8.46873 11.4165 8.46873C12.0831 8.46873 12.5311 8.74998 12.7602 9.31248C12.8852 9.64581 12.9477 10.1875 12.9477 10.9375V15.5Z" fill="#343434"/>
</svg>
