<svg width="14" height="19" viewBox="0 0 14 19" fill="none" xmlns="http://www.w3.org/2000/svg">
<path d="M12.25 14.1667H1.75V2.57078H12.25V14.1667ZM9 16.6515H5V15.8233H9V16.6515ZM11 0.0859375H3C2.20435 0.0859375 1.44129 0.347732 0.87868 0.81373C0.316071 1.27973 0 1.91176 0 2.57078V15.8233C0 16.4823 0.316071 17.1143 0.87868 17.5803C1.44129 18.0463 2.20435 18.3081 3 18.3081H11C11.7956 18.3081 12.5587 18.0463 13.1213 17.5803C13.6839 17.1143 14 16.4823 14 15.8233V2.57078C14 1.91176 13.6839 1.27973 13.1213 0.81373C12.5587 0.347732 11.7956 0.0859375 11 0.0859375Z" fill="black"/>
</svg>
