<svg width="13" height="17" viewBox="0 0 13 17" fill="none" xmlns="http://www.w3.org/2000/svg">
<path d="M7.3264 0.5C8.30556 0.520833 9.22744 0.744791 10.092 1.17187C10.9566 1.59896 11.6389 2.1875 12.1389 2.93749C12.6806 3.74999 12.9514 4.66145 12.9514 5.67186C12.9514 6.68228 12.7847 7.6354 12.4514 8.53123C12.0764 9.5104 11.5451 10.2812 10.8576 10.8437C10.0868 11.4687 9.18056 11.7812 8.1389 11.7812C7.72223 11.7812 7.30557 11.6823 6.8889 11.4843C6.47224 11.2864 6.17015 11.0104 5.98265 10.6562L5.73265 11.6562C5.46182 12.7396 5.24307 13.4896 5.07641 13.9062C4.82641 14.4687 4.37849 15.1875 3.73266 16.0625L3.60766 16.125L3.51391 16.0312L3.48266 15.5625C3.42016 14.9791 3.38891 14.5416 3.38891 14.25C3.38891 13.625 3.49308 12.8125 3.70141 11.8125C3.82641 11.2291 4.03474 10.3646 4.32641 9.21873L4.70141 7.71873C4.49307 7.3229 4.38891 6.80207 4.38891 6.15624C4.38891 5.55207 4.54516 5.05207 4.85766 4.65624C5.12849 4.32291 5.46182 4.11457 5.85765 4.03124C6.25349 3.94791 6.59724 4.02083 6.8889 4.24999C7.18057 4.47916 7.3264 4.84374 7.3264 5.34374C7.3264 5.61457 7.28473 5.91665 7.2014 6.24999C7.15973 6.43749 7.06598 6.72915 6.92015 7.12498C6.77432 7.52082 6.68057 7.81248 6.6389 7.99998C6.55557 8.33331 6.5139 8.62498 6.5139 8.87498C6.5139 9.27081 6.65453 9.59894 6.93578 9.85935C7.21703 10.1198 7.55557 10.25 7.9514 10.25C8.61806 10.25 9.18056 9.95831 9.6389 9.37498C10.0347 8.89581 10.3264 8.24998 10.5139 7.43748C10.6806 6.77082 10.7639 6.11457 10.7639 5.46874C10.7639 4.38541 10.4254 3.54166 9.74827 2.93749C9.07119 2.33333 8.18056 2.03125 7.0764 2.03125C6.2639 2.03125 5.51911 2.21875 4.84203 2.59374C4.16495 2.96874 3.63891 3.47916 3.26391 4.12499C2.88891 4.77082 2.70141 5.5104 2.70141 6.34374C2.70141 6.6979 2.76391 7.04165 2.88891 7.37498C2.95141 7.56248 3.06599 7.79165 3.23266 8.06248C3.35766 8.27081 3.42016 8.40623 3.42016 8.46873C3.42016 8.6354 3.37849 8.84373 3.29516 9.09373C3.19099 9.40623 3.07641 9.56248 2.95141 9.56248C2.68058 9.56248 2.38891 9.42185 2.07641 9.1406C1.76391 8.85935 1.5035 8.47915 1.29517 7.99998C1.066 7.43748 0.951416 6.81249 0.951416 6.12499C0.951416 4.99999 1.26392 3.99999 1.88891 3.12499C2.47225 2.3125 3.25349 1.67187 4.23266 1.20312C5.21182 0.734374 6.24307 0.5 7.3264 0.5Z" fill="black"/>
</svg>
