<svg width="17" height="14" viewBox="0 0 17 14" fill="none" xmlns="http://www.w3.org/2000/svg">
<path d="M15.2463 3.74999C15.2671 3.83333 15.2776 3.96874 15.2776 4.15624C15.2776 5.65624 14.913 7.10415 14.1838 8.49998C13.4338 9.97914 12.3817 11.1562 11.0276 12.0312C9.5484 13.0104 7.85049 13.5 5.93383 13.5C4.1005 13.5 2.42342 13.0104 0.902588 12.0312C1.13175 12.0521 1.39217 12.0625 1.68384 12.0625C3.20467 12.0625 4.56925 11.5937 5.77758 10.6562C5.04841 10.6562 4.40779 10.4427 3.85571 10.0156C3.30362 9.58852 2.92342 9.05206 2.71508 8.40623C2.92342 8.42706 3.12133 8.43748 3.30883 8.43748C3.6005 8.43748 3.89216 8.40623 4.18383 8.34373C3.43383 8.17707 2.80883 7.79165 2.30883 7.18748C1.80884 6.58332 1.55884 5.89582 1.55884 5.12499V5.06249C2.01717 5.33332 2.50675 5.47915 3.02758 5.49999C2.59008 5.18749 2.23592 4.79166 1.96509 4.31249C1.69425 3.83333 1.55884 3.30728 1.55884 2.73437C1.55884 2.16145 1.71509 1.61458 2.02759 1.09375C2.84008 2.11458 3.83487 2.92708 5.01195 3.53124C6.18903 4.13541 7.44424 4.46874 8.77757 4.53124C8.7359 4.28124 8.71507 4.03124 8.71507 3.78124C8.71507 3.19791 8.8609 2.65104 9.15257 2.14062C9.44423 1.63021 9.84007 1.22916 10.3401 0.937499C10.8401 0.645833 11.3817 0.5 11.9651 0.5C12.4442 0.5 12.8869 0.59375 13.2932 0.781249C13.6994 0.968749 14.0588 1.21875 14.3713 1.53125C15.1213 1.38541 15.8192 1.125 16.4651 0.749999C16.2151 1.52083 15.7359 2.125 15.0276 2.56249C15.6526 2.47916 16.2776 2.30208 16.9025 2.03125C16.4442 2.69791 15.8921 3.27083 15.2463 3.74999Z" fill="#343434"/>
</svg>
