<svg width="24" height="25" viewBox="0 0 24 25" fill="none" xmlns="http://www.w3.org/2000/svg">
<path d="M17.4719 15.1711C17.1749 15.0221 15.7139 14.3041 15.4419 14.2041C15.1689 14.1051 14.9709 14.0561 14.7719 14.3541C14.5749 14.6511 14.0049 15.3201 13.8319 15.5181C13.6589 15.7171 13.4849 15.7411 13.1879 15.5931C12.8909 15.4431 11.9329 15.1301 10.7979 14.1181C9.91488 13.3301 9.31789 12.3571 9.14489 12.0591C8.97188 11.7621 9.12688 11.6011 9.27488 11.4531C9.40888 11.3201 9.57288 11.1061 9.72088 10.9331C9.86988 10.7591 9.91888 10.6351 10.0189 10.4361C10.1179 10.2381 10.0689 10.0651 9.99389 9.9161C9.91889 9.7671 9.32488 8.3041 9.07788 7.7091C8.83589 7.1301 8.59089 7.2091 8.40889 7.1991C8.23588 7.1911 8.03788 7.1891 7.83888 7.1891C7.64088 7.1891 7.31888 7.2631 7.04688 7.5611C6.77488 7.8581 6.00688 8.5771 6.00688 10.0401C6.00688 11.5021 7.07188 12.9151 7.21988 13.1141C7.36888 13.3121 9.31588 16.3141 12.2969 17.6011C13.0059 17.9071 13.5589 18.0901 13.9909 18.2261C14.7029 18.4531 15.3509 18.4211 15.8619 18.3441C16.4329 18.2591 17.6199 17.6251 17.8679 16.9311C18.1159 16.2371 18.1159 15.6421 18.0409 15.5181C17.9669 15.3941 17.7699 15.3201 17.4719 15.1711ZM12.0499 22.5741H12.0459C10.2757 22.5742 8.53796 22.0983 7.01488 21.1961L6.65388 20.9821L2.91288 21.9641L3.91088 18.3161L3.67588 17.9421C2.68632 16.3664 2.16283 14.5428 2.16588 12.6821C2.16688 7.2321 6.60188 2.7981 12.0539 2.7981C14.6939 2.7981 17.1759 3.8281 19.0419 5.6961C19.9626 6.61272 20.6923 7.70283 21.1889 8.90335C21.6855 10.1039 21.939 11.3909 21.9349 12.6901C21.9319 18.1401 17.4979 22.5741 12.0499 22.5741ZM20.4629 4.2771C19.3611 3.16803 18.0501 2.28864 16.606 1.6899C15.1618 1.09117 13.6132 0.784986 12.0499 0.789103C5.49488 0.789103 0.159885 6.1241 0.156885 12.6811C0.156885 14.7771 0.703885 16.8231 1.74488 18.6261L0.0568848 24.7891L6.36188 23.1351C8.10548 24.085 10.0593 24.5829 12.0449 24.5831H12.0499C18.6039 24.5831 23.9399 19.2481 23.9429 12.6901C23.9477 11.1274 23.6426 9.5792 23.0453 8.13514C22.448 6.69107 21.5702 5.37977 20.4629 4.2771Z" fill="#25D366"/>
</svg>
