<svg width="14" height="15" viewBox="0 0 14 15" fill="none" xmlns="http://www.w3.org/2000/svg">
<path fill-rule="evenodd" clip-rule="evenodd" d="M0.469828 0.96995C0.610453 0.8295 0.801078 0.75061 0.999828 0.75061C1.19858 0.75061 1.3892 0.8295 1.52983 0.96995L13.5298 12.9699C13.6035 13.0386 13.6626 13.1214 13.7036 13.2134C13.7446 13.3054 13.7666 13.4047 13.7684 13.5054C13.7702 13.6061 13.7517 13.7062 13.714 13.7995C13.6762 13.8929 13.6201 13.9778 13.5489 14.049C13.4776 14.1202 13.3928 14.1764 13.2994 14.2141C13.206 14.2518 13.106 14.2703 13.0053 14.2685C12.9046 14.2668 12.8053 14.2447 12.7133 14.2037C12.6213 14.1627 12.5385 14.1036 12.4698 14.03L0.469828 2.02995C0.329378 1.88933 0.250488 1.6987 0.250488 1.49995C0.250488 1.3012 0.329378 1.11058 0.469828 0.96995Z" fill="#343434"/>
<path fill-rule="evenodd" clip-rule="evenodd" d="M13.5298 0.96995C13.6703 1.11058 13.7492 1.3012 13.7492 1.49995C13.7492 1.6987 13.6703 1.88933 13.5298 2.02995L1.52985 14.03C1.38767 14.1624 1.19963 14.2346 1.00532 14.2311C0.811023 14.2277 0.625638 14.149 0.488225 14.0116C0.350812 13.8742 0.2721 13.6888 0.268672 13.4945C0.265243 13.3002 0.337366 13.1121 0.469846 12.9699L12.4698 0.96995C12.6105 0.8295 12.8011 0.75061 12.9998 0.75061C13.1986 0.75061 13.3892 0.8295 13.5298 0.96995Z" fill="#343434"/>
</svg>
