<svg width="25" height="25" viewBox="0 0 25 25" fill="none" xmlns="http://www.w3.org/2000/svg">
<path d="M9 19.7471H8.5C4.5 19.7471 2.5 18.7471 2.5 13.7471V8.74707C2.5 4.74707 4.5 2.74707 8.5 2.74707H16.5C20.5 2.74707 22.5 4.74707 22.5 8.74707V13.7471C22.5 17.7471 20.5 19.7471 16.5 19.7471H16C15.69 19.7471 15.39 19.8971 15.2 20.1471L13.7 22.1471C13.04 23.0271 11.96 23.0271 11.3 22.1471L9.8 20.1471C9.64 19.9271 9.27 19.7471 9 19.7471Z" stroke="#343434" stroke-width="1.5" stroke-miterlimit="10" stroke-linecap="round" stroke-linejoin="round"/>
<path d="M16.4965 11.7471H16.5054" stroke="#343434" stroke-width="2" stroke-linecap="round" stroke-linejoin="round"/>
<path d="M12.4955 11.7471H12.5045" stroke="#343434" stroke-width="2" stroke-linecap="round" stroke-linejoin="round"/>
<path d="M8.49451 11.7471H8.50349" stroke="#343434" stroke-width="2" stroke-linecap="round" stroke-linejoin="round"/>
</svg>
