<svg width="11" height="11" viewBox="0 0 11 11" fill="none" xmlns="http://www.w3.org/2000/svg">
<path fill-rule="evenodd" clip-rule="evenodd" d="M9.34675 1.27266C9.04593 0.971922 8.63797 0.802979 8.21261 0.802979C7.78724 0.802979 7.37929 0.971922 7.07846 1.27266L6.70041 1.65124L9.34729 4.29812L9.7248 3.92007C9.87379 3.7711 9.99197 3.59425 10.0726 3.3996C10.1532 3.20496 10.1947 2.99634 10.1947 2.78565C10.1947 2.57497 10.1532 2.36635 10.0726 2.1717C9.99197 1.97706 9.87379 1.8002 9.7248 1.65124L9.34675 1.27266ZM8.59065 5.05421L5.94378 2.40734L1.08315 7.2685C0.976789 7.37488 0.902486 7.50903 0.868731 7.65564L0.318502 10.0378C0.298 10.1263 0.300352 10.2185 0.325335 10.3057C0.350318 10.393 0.397111 10.4725 0.461304 10.5367C0.525497 10.6009 0.604976 10.6477 0.692253 10.6727C0.77953 10.6976 0.871731 10.7 0.960168 10.6795L3.34289 10.1298C3.4893 10.0959 3.62326 10.0217 3.72949 9.91537L8.59065 5.05421Z" fill="white"/>
</svg>
