<svg width="17" height="17" viewBox="0 0 17 17" fill="none" xmlns="http://www.w3.org/2000/svg">
<path d="M2.5 16.161C1.95 16.161 1.47933 15.9654 1.088 15.574C0.696666 15.1827 0.500667 14.7117 0.5 14.161V12.161C0.5 11.8777 0.596 11.6404 0.788 11.449C0.98 11.2577 1.21733 11.1617 1.5 11.161C1.78267 11.1604 2.02033 11.2564 2.213 11.449C2.40567 11.6417 2.50133 11.879 2.5 12.161V14.161H14.5V12.161C14.5 11.8777 14.596 11.6404 14.788 11.449C14.98 11.2577 15.2173 11.1617 15.5 11.161C15.7827 11.1604 16.0203 11.2564 16.213 11.449C16.4057 11.6417 16.5013 11.879 16.5 12.161V14.161C16.5 14.711 16.3043 15.182 15.913 15.574C15.5217 15.966 15.0507 16.1617 14.5 16.161H2.5ZM7.5 4.01104L5.625 5.88604C5.425 6.08604 5.18767 6.18204 4.913 6.17404C4.63833 6.16604 4.40067 6.06171 4.2 5.86104C4.01667 5.66104 3.92067 5.42771 3.912 5.16104C3.90333 4.89438 3.99933 4.66104 4.2 4.46104L7.8 0.861044C7.9 0.761044 8.00833 0.690377 8.125 0.649044C8.24167 0.607711 8.36667 0.586711 8.5 0.586044C8.63333 0.585378 8.75833 0.606377 8.875 0.649044C8.99167 0.691711 9.1 0.762377 9.2 0.861044L12.8 4.46104C13 4.66104 13.096 4.89438 13.088 5.16104C13.08 5.42771 12.984 5.66104 12.8 5.86104C12.6 6.06104 12.3627 6.16538 12.088 6.17404C11.8133 6.18271 11.5757 6.08671 11.375 5.88604L9.5 4.01104V11.161C9.5 11.4444 9.404 11.682 9.212 11.874C9.02 12.066 8.78267 12.1617 8.5 12.161C8.21733 12.1604 7.98 12.0644 7.788 11.873C7.596 11.6817 7.5 11.4444 7.5 11.161V4.01104Z" fill="black"/>
</svg>
