<svg width="24" height="24" viewBox="0 0 24 24" fill="none" xmlns="http://www.w3.org/2000/svg">
<path d="M12.1047 4.78857H6.5773C6.15846 4.78857 5.75677 4.95496 5.4606 5.25113C5.16443 5.54729 4.99805 5.94898 4.99805 6.36783V17.4226C4.99805 17.8414 5.16443 18.2431 5.4606 18.5393C5.75677 18.8355 6.15846 19.0019 6.5773 19.0019H17.6321C18.0509 19.0019 18.4526 18.8355 18.7488 18.5393C19.0449 18.2431 19.2113 17.8414 19.2113 17.4226V11.8952" stroke="#343434" stroke-width="1.57925" stroke-linecap="round" stroke-linejoin="round"/>
<path d="M17.1389 4.49232C17.453 4.17819 17.8791 4.00171 18.3233 4.00171C18.7676 4.00171 19.1936 4.17819 19.5078 4.49232C19.8219 4.80645 19.9984 5.23251 19.9984 5.67676C19.9984 6.12101 19.8219 6.54707 19.5078 6.8612L12.3909 13.9789C12.2034 14.1662 11.9717 14.3034 11.7173 14.3777L9.44872 15.0409C9.38077 15.0608 9.30875 15.0619 9.24019 15.0444C9.17162 15.0268 9.10904 14.9911 9.059 14.9411C9.00895 14.891 8.97328 14.8285 8.95571 14.7599C8.93815 14.6913 8.93933 14.6193 8.95915 14.5514L9.62244 12.2828C9.69708 12.0286 9.83448 11.7972 10.022 11.61L17.1389 4.49232Z" stroke="#343434" stroke-width="1.57925" stroke-linecap="round" stroke-linejoin="round"/>
</svg>
