<svg width="20" height="19" viewBox="0 0 20 19" fill="none" xmlns="http://www.w3.org/2000/svg">
<path d="M8.35273 2.10003C8.51186 2.10003 8.66448 2.16325 8.777 2.27577C8.88952 2.38829 8.95273 2.5409 8.95273 2.70003C8.95273 2.85916 8.88952 3.01178 8.777 3.1243C8.66448 3.23682 8.51186 3.30003 8.35273 3.30003H4.15273C3.51621 3.30003 2.90577 3.55289 2.45568 4.00298C2.00559 4.45307 1.75273 5.06351 1.75273 5.70003V15.3C1.75273 15.9366 2.00559 16.547 2.45568 16.9971C2.90577 17.4472 3.51621 17.7 4.15273 17.7H13.7527C14.3893 17.7 14.9997 17.4472 15.4498 16.9971C15.8999 16.547 16.1527 15.9366 16.1527 15.3V13.5C16.1527 13.3409 16.2159 13.1883 16.3285 13.0758C16.441 12.9632 16.5936 12.9 16.7527 12.9C16.9119 12.9 17.0645 12.9632 17.177 13.0758C17.2895 13.1883 17.3527 13.3409 17.3527 13.5V15.3C17.3527 16.2548 16.9735 17.1705 16.2983 17.8456C15.6232 18.5208 14.7075 18.9 13.7527 18.9H4.15273C3.19796 18.9 2.28228 18.5208 1.60715 17.8456C0.932019 17.1705 0.552734 16.2548 0.552734 15.3V5.70003C0.552734 4.74526 0.932019 3.82958 1.60715 3.15445C2.28228 2.47932 3.19796 2.10003 4.15273 2.10003H8.35273ZM12.9091 0.951635C13.0151 0.904407 13.1325 0.888907 13.247 0.90701C13.3616 0.925113 13.4685 0.976043 13.5547 1.05363L19.5547 6.45363C19.6174 6.5099 19.6675 6.57873 19.7018 6.65564C19.7361 6.73255 19.7538 6.81582 19.7538 6.90003C19.7538 6.98425 19.7361 7.06752 19.7018 7.14443C19.6675 7.22134 19.6174 7.29017 19.5547 7.34643L13.5547 12.7464C13.4685 12.8242 13.3616 12.8754 13.2469 12.8936C13.1322 12.9118 13.0147 12.8964 12.9086 12.8491C12.8025 12.8018 12.7124 12.7248 12.6492 12.6273C12.5861 12.5299 12.5525 12.4162 12.5527 12.3V9.70803C10.8727 9.86163 9.35474 10.644 8.11273 11.6376C6.89473 12.6132 5.98273 13.7592 5.47873 14.6184L5.28913 14.9676C5.22864 15.0883 5.12921 15.1851 5.00692 15.2423C4.88463 15.2995 4.74662 15.3138 4.61521 15.2828C4.48379 15.2519 4.36666 15.1775 4.28274 15.0718C4.19882 14.966 4.15301 14.835 4.15273 14.7C4.15273 12.2412 4.61113 9.55923 5.97433 7.47123C7.28473 5.46963 9.39433 4.07163 12.5527 3.91563V1.50003L12.5587 1.41243C12.5735 1.31231 12.6134 1.21755 12.6747 1.13698C12.736 1.05641 12.8166 0.992653 12.9091 0.951635ZM13.7527 4.50003C13.7527 4.65916 13.6895 4.81178 13.577 4.9243C13.4645 5.03682 13.3119 5.10003 13.1527 5.10003C10.0471 5.10003 8.14033 6.35403 6.97993 8.12763C6.15793 9.38643 5.69233 10.9356 5.48473 12.5484C6.00433 11.9244 6.63673 11.2836 7.36273 10.7004C8.88433 9.48363 10.8727 8.47923 13.1527 8.47923C13.3119 8.47923 13.4645 8.54245 13.577 8.65497C13.6895 8.76749 13.7527 8.9201 13.7527 9.07923V10.9512L18.2527 6.90003L13.7527 2.84763V4.50003Z" fill="black"/>
</svg>
