<svg width="5" height="17" viewBox="0 0 5 17" fill="none" xmlns="http://www.w3.org/2000/svg">
<path d="M2.51849 12.5012C3.04892 12.4988 3.55859 12.7072 3.93538 13.0805C4.31217 13.4539 4.52521 13.9616 4.52765 14.492C4.53008 15.0225 4.32171 15.5321 3.94836 15.9089C3.57501 16.2857 3.06728 16.4988 2.53685 16.5012C2.00642 16.5036 1.49675 16.2953 1.11996 15.9219C0.743173 15.5486 0.530126 15.0408 0.527691 14.5104C0.525256 13.98 0.733632 13.4703 1.10698 13.0935C1.48033 12.7167 1.98806 12.5037 2.51849 12.5012ZM2.49094 6.50131C3.02137 6.49887 3.53104 6.70725 3.90783 7.08059C4.28462 7.45394 4.49767 7.96168 4.5001 8.4921C4.50254 9.02253 4.29416 9.5322 3.92082 9.90899C3.54747 10.2858 3.03973 10.4988 2.50931 10.5013C1.97888 10.5037 1.46921 10.2953 1.09242 9.92197C0.715629 9.54863 0.502582 9.04089 0.500147 8.51047C0.497712 7.98004 0.706088 7.47037 1.07944 7.09358C1.45278 6.71679 1.96052 6.50374 2.49094 6.50131ZM2.4634 0.501369C2.99383 0.498934 3.5035 0.70731 3.88029 1.08066C4.25708 1.454 4.47013 1.96174 4.47256 2.49217C4.475 3.02259 4.26662 3.53226 3.89327 3.90905C3.51992 4.28584 3.01219 4.49889 2.48176 4.50133C1.95134 4.50376 1.44167 4.29539 1.06488 3.92204C0.688085 3.54869 0.475038 3.04096 0.472602 2.51053C0.470167 1.9801 0.678544 1.47043 1.05189 1.09364C1.42524 0.716851 1.93297 0.503804 2.4634 0.501369Z" fill="#343434"/>
</svg>
