<svg width="15" height="13" viewBox="0 0 15 13" fill="none" xmlns="http://www.w3.org/2000/svg">
<path d="M11 6.1C11 6.4866 10.6866 6.8 10.3 6.8C9.9134 6.8 9.6 6.4866 9.6 6.1C9.6 5.7134 9.9134 5.4 10.3 5.4C10.6866 5.4 11 5.7134 11 6.1ZM8.2 6.1C8.2 6.4866 7.8866 6.8 7.5 6.8C7.1134 6.8 6.8 6.4866 6.8 6.1C6.8 5.7134 7.1134 5.4 7.5 5.4C7.8866 5.4 8.2 5.7134 8.2 6.1ZM5.4 6.1C5.4 6.4866 5.0866 6.8 4.7 6.8C4.3134 6.8 4 6.4866 4 6.1C4 5.7134 4.3134 5.4 4.7 5.4C5.0866 5.4 5.4 5.7134 5.4 6.1ZM13.1 0.5H1.9C1.5287 0.5 1.1726 0.6475 0.91005 0.91005C0.6475 1.1726 0.5 1.5287 0.5 1.9V11.1201C0.5 12.3674 2.008 12.992 2.88995 12.1101C3.1525 11.8475 3.5086 11.7 3.8799 11.7H13.1C13.4713 11.7 13.8274 11.5525 14.0899 11.2899C14.3525 11.0274 14.5 10.6713 14.5 10.3V1.9C14.5 1.123 13.87 0.5 13.1 0.5Z" fill="#343434"/>
</svg>
