<svg width="15" height="15" viewBox="0 0 15 15" fill="none" xmlns="http://www.w3.org/2000/svg">
<path d="M9.70489 6.73653C9.84545 7.14243 10.1816 7.5 10.6111 7.5C11.0407 7.5 11.3967 7.14836 11.3114 6.72737C11.1606 5.98384 10.7943 5.29458 10.2499 4.75014C9.70542 4.2057 9.01616 3.83936 8.27263 3.68862C7.85164 3.60327 7.5 3.95933 7.5 4.38889C7.5 4.81844 7.85757 5.15455 8.26347 5.29511C8.59405 5.40958 8.89785 5.59802 9.14992 5.85008C9.40198 6.10215 9.59042 6.40595 9.70489 6.73653ZM12.8896 6.72453C12.9503 7.14978 13.2927 7.5 13.7222 7.5C14.1518 7.5 14.5045 7.15044 14.4579 6.72343C14.1013 3.46127 11.5232 0.89827 8.27655 0.5423C7.84956 0.495483 7.5 0.848223 7.5 1.27778C7.5 1.70733 7.85021 2.04972 8.27546 2.11044C10.6589 2.45076 12.5491 4.33653 12.8896 6.72453ZM13.7222 10.2222C12.75 10.2222 11.8167 10.0667 10.9456 9.77889C10.6733 9.69333 10.37 9.75556 10.1522 9.97333C9.1318 10.9938 7.53737 11.2767 6.4134 10.3716C5.75638 9.84253 5.15747 9.24362 4.62838 8.5866C3.72327 7.46263 4.00624 5.8682 5.02667 4.84778C5.24444 4.63 5.30667 4.32667 5.22111 4.05444C4.93333 3.18333 4.77778 2.25 4.77778 1.27778C4.77778 1.0715 4.69583 0.873667 4.54997 0.727806C4.40411 0.581944 4.20628 0.5 4 0.5H1.27778C1.0715 0.5 0.873667 0.581944 0.727806 0.727806C0.581944 0.873667 0.5 1.0715 0.5 1.27778C0.5 4.78453 1.89305 8.14765 4.3727 10.6273C6.85235 13.1069 10.2155 14.5 13.7222 14.5C13.9285 14.5 14.1263 14.4181 14.2722 14.2722C14.4181 14.1263 14.5 13.9285 14.5 13.7222V11C14.5 10.7937 14.4181 10.5959 14.2722 10.45C14.1263 10.3042 13.9285 10.2222 13.7222 10.2222Z" fill="#343434"/>
</svg>
